<svg xmlns="http://www.w3.org/2000/svg" viewBox="0 0 2497.27 520.59"><defs><style>.cls-1{fill:#fff;}.cls-2{fill:#bdd1d5;}.cls-2,.cls-3{stroke:#000;stroke-miterlimit:10;}</style></defs><g id="Layer_2" data-name="Layer 2"><g id="Layer_1-2" data-name="Layer 1"><rect class="cls-1" y="20.59" width="500" height="500"/><ellipse class="cls-2" cx="250" cy="110.86" rx="43.91" ry="43.96"/><rect class="cls-1" x="498.54" y="20.59" width="500" height="500"/><ellipse class="cls-2" cx="748.54" cy="167.37" rx="43.91" ry="43.81"/><rect class="cls-1" x="997.27" y="20.59" width="500" height="500"/><ellipse class="cls-2" cx="1247.27" cy="226.79" rx="43.91" ry="43.81"/><rect class="cls-1" x="1497.27" y="20.59" width="500" height="500"/><ellipse class="cls-2" cx="1747.27" cy="290.36" rx="55.15" ry="35.09"/><rect class="cls-1" x="1997.27" y="20.59" width="500" height="500"/><ellipse class="cls-2" cx="2247.27" cy="312.9" rx="69.22" ry="27.88"/><path class="cls-3" d="M261.29.54l9.94,1.33a5,5,0,0,1,4.19,6.26l-10.2,38.71A2,2,0,0,1,263,48.31l-5.39-.72a2,2,0,0,1-1.74-2l-.27-40.07A5,5,0,0,1,261.29.54Z"/><ellipse class="cls-3" cx="258.94" cy="57.61" rx="7.54" ry="7.57"/><path class="cls-3" d="M806.67,68.24l9.09,4.23a5,5,0,0,1,2.11,7.21l-21.34,33.74a2,2,0,0,1-2.53.74l-4.93-2.3a2,2,0,0,1-1.06-2.4l11.77-38.17A5,5,0,0,1,806.67,68.24Z"/><circle class="cls-3" cx="786.02" cy="123.48" r="7.54"/><path class="cls-3" d="M701.1,104.05l3.7-1.35a2,2,0,0,1,2.58,1.39l3.37,15.09a.78.78,0,0,1-.5.9l-2,.73a.78.78,0,0,1-1-.36L700,106.79A2,2,0,0,1,701.1,104.05Z"/><ellipse class="cls-3" cx="710.6" cy="124.83" rx="2.97" ry="2.92" transform="translate(0.19 250.73) rotate(-20.01)"/><path class="cls-3" d="M711,39.39l9.89-1.71a5,5,0,0,1,5.84,4.71l1.71,39.89a2,2,0,0,1-1.66,2.06l-5.35.92a2,2,0,0,1-2.25-1.37L707.08,45.83A5,5,0,0,1,711,39.39Z"/><circle class="cls-3" cx="725.54" cy="96.54" r="7.54"/><path class="cls-3" d="M777.82,99.33l2.42.22a1.12,1.12,0,0,1,1.09,1.3l-2,8.29a.48.48,0,0,1-.52.33l-1.31-.12a.46.46,0,0,1-.44-.41l-.56-8.51A1.12,1.12,0,0,1,777.82,99.33Z"/><ellipse class="cls-3" cx="777.81" cy="111.9" rx="1.61" ry="1.83" transform="translate(596.58 876.54) rotate(-84.85)"/><path class="cls-3" d="M738,107.69l2.37-.18a1.09,1.09,0,0,1,1.25,1.09l-.6,8.3a.45.45,0,0,1-.44.4l-1.28.09a.46.46,0,0,1-.5-.32L736.93,109A1.1,1.1,0,0,1,738,107.69Z"/><ellipse class="cls-3" cx="739.99" cy="119.8" rx="1.78" ry="1.57" transform="translate(-6.77 54.32) rotate(-4.18)"/><path class="cls-3" d="M763.74,111.29l2.21.2c.66.06,1.14.49,1,.93l-1.64,5.73a.42.42,0,0,1-.46.22l-1.2-.11c-.22,0-.4-.14-.41-.29l-.68-5.94C762.52,111.58,763.07,111.23,763.74,111.29Z"/><ellipse class="cls-3" cx="763.84" cy="121.74" rx="1.09" ry="1.53" transform="matrix(0.09, -1, 1, 0.09, 574.07, 871.59)"/><path class="cls-3" d="M765.25,10.49l14.47,2.1a7.29,7.29,0,0,1,6,9.17L770.08,77.85a2.92,2.92,0,0,1-3.23,2.1L759,78.82a2.92,2.92,0,0,1-2.5-2.91l.4-58.25A7.3,7.3,0,0,1,765.25,10.49Z"/><circle class="cls-3" cx="759.63" cy="96.33" r="11"/><path class="cls-3" d="M1240,61.09h14.62a7.29,7.29,0,0,1,7.24,8.22l-7.43,57.75a2.92,2.92,0,0,1-2.89,2.55h-7.93a2.92,2.92,0,0,1-2.89-2.52l-7.94-57.71A7.29,7.29,0,0,1,1240,61.09Z"/><circle class="cls-3" cx="1247.27" cy="146.84" r="11"/></g></g></svg>