<svg xmlns="http://www.w3.org/2000/svg" xmlns:xlink="http://www.w3.org/1999/xlink" viewBox="0 0 429.07 394.19"><defs><style>.cls-1,.cls-4{fill:none;}.cls-2{fill:#fff;}.cls-3{clip-path:url(#clip-path);}.cls-4{stroke:#000;stroke-linecap:round;stroke-linejoin:round;stroke-width:17.84px;}.cls-5{clip-path:url(#clip-path-2);}</style><clipPath id="clip-path"><rect class="cls-1" x="63.37" y="87.79" width="302.33" height="241.86"/></clipPath><clipPath id="clip-path-2"><rect class="cls-1" x="63.37" y="87.79" width="302.33" height="241.86"/></clipPath></defs><g id="Layer_2" data-name="Layer 2"><g id="Layer_1-2" data-name="Layer 1"><ellipse class="cls-2" cx="214.53" cy="197.09" rx="214.53" ry="197.09"/><g id="Artwork_2" data-name="Artwork 2"><g class="cls-3"><polygon points="269.83 273.43 242.22 258.06 302.53 150.29 330.4 165.16 269.83 273.43"/><polygon class="cls-4" points="269.83 273.43 242.22 258.06 302.53 150.29 330.4 165.16 269.83 273.43"/><polygon points="316.16 127.63 343.04 144.27 357.07 119.22 330.11 102.68 316.16 127.63"/><g class="cls-5"><polygon class="cls-4" points="343.04 144.27 316.15 127.64 330.11 102.68 357.06 119.22 343.04 144.27"/></g><polygon points="269.83 273.43 246.75 281.1 242.22 258.17 262.6 251.65 269.83 273.43"/><polygon class="cls-4" points="269.83 273.43 246.75 281.1 242.22 258.17 262.6 251.65 269.83 273.43"/><g class="cls-5"><path d="M233,296.42c-10.2,16.89-29.49,19.86-46.94,19-7.37-.33-16-.73-22.47-5-10.25-6.67-8.11-16.34-2.8-25.65,15.9-27.84,41.4-50.32,45.35-84.44,1.41-12.14.07-26.47-9-35.06-9.37-8.93-23.63-9-34.95-4.85-13.91,5.09-24.51,15.69-35.49,25.67-6.09,5.5-13.86,13.21-22.25,13.89-9.22.76-20.54-6.51-25-14.87-10-18.88,4.1-38.51,15.76-51.86,9.7-11.11,19.22-22,23.19-37,2.27-8.58-10.21-12.23-12.48-3.67-4.47,16.82-18,27.53-28,40.57-9.61,12.56-16.34,28-14.17,44.51,2.14,16.17,12.76,27.54,26.67,33.27,15.26,6.27,27.76,0,39.82-10.22,14-11.76,32.44-35.21,52.7-28.25,22.32,7.65,6.15,45.46-1.73,58.76-9.92,16.78-23.16,31.08-32.6,48.23-7.15,13-8.44,26.95,2.5,38.18,12,12.36,33.3,12.8,48.83,11.36,17.9-1.64,34.22-9.18,44.18-25.67,4.54-7.51-6.67-14.44-11.17-7"/></g></g></g></g></g></svg>