<svg xmlns="http://www.w3.org/2000/svg" xmlns:xlink="http://www.w3.org/1999/xlink" viewBox="0 0 450 450"><defs><style>.cls-1,.cls-5{fill:none;}.cls-2{fill:#fff;}.cls-3{clip-path:url(#clip-path);}.cls-4{clip-path:url(#clip-path-2);}.cls-5{stroke:#000;stroke-linecap:round;stroke-linejoin:round;stroke-width:19.84px;}</style><clipPath id="clip-path"><rect class="cls-1" x="73.84" y="116.28" width="302.33" height="203.49"/></clipPath><clipPath id="clip-path-2"><rect class="cls-1" x="73.84" y="116.27" width="302.33" height="203.5"/></clipPath></defs><g id="Layer_2" data-name="Layer 2"><g id="Layer_1-2" data-name="Layer 1"><circle class="cls-2" cx="225" cy="225" r="225"/><g id="Artwork_4" data-name="Artwork 4"><g class="cls-3"><rect x="83.88" y="152.93" width="282.2" height="157.08"/><g class="cls-4"><rect class="cls-5" x="83.9" y="152.93" width="282.2" height="157.06"/><path class="cls-2" d="M286.52,225.44c1.83,30.53-24.25,56.82-58.23,58.74s-63-21.26-64.8-51.8,24.23-56.82,58.2-58.74,63,21.26,64.83,51.8"/><path d="M272.27,228.91c0,23.45-21.17,42.46-47.28,42.46s-47.25-19-47.25-42.46,21.15-42.47,47.25-42.47,47.28,19,47.28,42.47"/><polygon points="283.63 152.93 166.38 152.93 180.4 126.05 269.61 126.05 283.63 152.93"/><polygon class="cls-5" points="283.63 152.93 166.38 152.93 180.4 126.05 269.61 126.05 283.63 152.93"/></g></g></g></g></g></svg>