<svg xmlns="http://www.w3.org/2000/svg" xmlns:xlink="http://www.w3.org/1999/xlink" viewBox="0 0 429.07 394.19"><defs><style>.cls-1,.cls-5{fill:none;}.cls-2{fill:#fff;}.cls-3{clip-path:url(#clip-path);}.cls-4{clip-path:url(#clip-path-2);}.cls-5{stroke:#000;stroke-linecap:round;stroke-linejoin:round;stroke-width:19.84px;}</style><clipPath id="clip-path"><rect class="cls-1" x="63.37" y="88.37" width="302.33" height="203.49"/></clipPath><clipPath id="clip-path-2"><rect class="cls-1" x="63.37" y="88.36" width="302.33" height="203.5"/></clipPath></defs><g id="Layer_2" data-name="Layer 2"><g id="Layer_1-2" data-name="Layer 1"><ellipse class="cls-2" cx="214.53" cy="197.09" rx="214.53" ry="197.09"/><g id="Artwork_4" data-name="Artwork 4"><g class="cls-3"><rect x="73.42" y="125.02" width="282.2" height="157.08"/><g class="cls-4"><rect class="cls-5" x="73.44" y="125.02" width="282.2" height="157.06"/><path class="cls-2" d="M276.06,197.53c1.83,30.54-24.26,56.83-58.23,58.74S154.83,235,153,204.48s24.23-56.83,58.21-58.75,63,21.27,64.83,51.8"/><path d="M261.81,201c0,23.45-21.18,42.47-47.28,42.47s-47.26-19-47.26-42.47,21.15-42.47,47.26-42.47,47.28,19,47.28,42.47"/><polygon points="273.17 125.02 155.91 125.02 169.94 98.14 259.14 98.14 273.17 125.02"/><polygon class="cls-5" points="273.17 125.02 155.91 125.02 169.94 98.14 259.14 98.14 273.17 125.02"/></g></g></g></g></g></svg>