<svg xmlns="http://www.w3.org/2000/svg" xmlns:xlink="http://www.w3.org/1999/xlink" viewBox="0 0 450 450"><defs><style>.cls-1,.cls-4{fill:none;}.cls-2{fill:#fff;}.cls-3{clip-path:url(#clip-path);}.cls-4{stroke:#000;stroke-linecap:round;stroke-linejoin:round;stroke-width:17.84px;}.cls-5{clip-path:url(#clip-path-2);}</style><clipPath id="clip-path"><rect class="cls-1" x="73.84" y="115.7" width="302.33" height="241.86"/></clipPath><clipPath id="clip-path-2"><rect class="cls-1" x="73.84" y="115.7" width="302.33" height="241.86"/></clipPath></defs><g id="Layer_2" data-name="Layer 2"><g id="Layer_1-2" data-name="Layer 1"><circle class="cls-2" cx="225" cy="225" r="225"/><g id="Artwork_2" data-name="Artwork 2"><g class="cls-3"><polygon points="280.3 301.33 252.68 285.97 312.99 178.2 340.87 193.07 280.3 301.33"/><polygon class="cls-4" points="280.3 301.33 252.68 285.97 312.99 178.2 340.87 193.07 280.3 301.33"/><polygon points="326.63 155.54 353.5 172.18 367.54 147.13 340.57 130.58 326.63 155.54"/><g class="cls-5"><polygon class="cls-4" points="353.51 172.18 326.61 155.54 340.58 130.59 367.52 147.13 353.51 172.18"/></g><polygon points="280.3 301.33 257.22 309.01 252.68 286.08 273.06 279.55 280.3 301.33"/><polygon class="cls-4" points="280.3 301.33 257.22 309.01 252.68 286.08 273.06 279.55 280.3 301.33"/><g class="cls-5"><path d="M243.43,324.33c-10.2,16.89-29.48,19.86-46.93,19-7.37-.33-16-.74-22.48-5-10.25-6.68-8.11-16.34-2.79-25.66,15.9-27.83,41.39-50.31,45.34-84.43,1.42-12.14.07-26.47-9-35.07-9.38-8.92-23.63-9-35-4.85-13.91,5.09-24.51,15.7-35.49,25.68-6.09,5.49-13.86,13.2-22.25,13.89-9.21.75-20.54-6.51-25-14.87-10-18.89,4.09-38.51,15.76-51.87,9.7-11.1,19.21-22,23.18-37,2.28-8.57-10.2-12.23-12.48-3.67-4.47,16.82-18,27.54-28,40.58-9.62,12.56-16.35,28-14.17,44.51,2.14,16.17,12.75,27.53,26.66,33.27,15.26,6.27,27.76,0,39.83-10.22,14-11.77,32.43-35.21,52.7-28.26,22.32,7.66,6.14,45.47-1.73,58.77-9.93,16.78-23.16,31.08-32.61,48.23-7.14,13-8.44,26.95,2.51,38.18,12,12.36,33.29,12.8,48.83,11.36,17.9-1.64,34.21-9.19,44.17-25.67,4.54-7.51-6.66-14.45-11.17-7"/></g></g></g></g></g></svg>