<svg xmlns="http://www.w3.org/2000/svg" xmlns:xlink="http://www.w3.org/1999/xlink" viewBox="0 0 450 450"><defs><style>.cls-1,.cls-5{fill:none;}.cls-2{fill:#fff;}.cls-3{clip-path:url(#clip-path);}.cls-4{clip-path:url(#clip-path-2);}.cls-5{stroke:#000;stroke-linecap:round;stroke-linejoin:round;stroke-width:19.84px;}</style><clipPath id="clip-path"><rect class="cls-1" x="73.84" y="123.26" width="302.33" height="203.49"/></clipPath><clipPath id="clip-path-2"><rect class="cls-1" x="73.84" y="123.25" width="302.33" height="203.5"/></clipPath></defs><g id="Layer_2" data-name="Layer 2"><g id="Layer_1-2" data-name="Layer 1"><rect class="cls-2" width="450" height="450"/><g id="Artwork_4" data-name="Artwork 4"><g class="cls-3"><rect x="83.88" y="159.91" width="282.2" height="157.08"/><g class="cls-4"><rect class="cls-5" x="83.9" y="159.91" width="282.2" height="157.06"/><path class="cls-2" d="M286.52,232.42c1.83,30.53-24.25,56.82-58.23,58.74s-63-21.26-64.8-51.8,24.23-56.83,58.2-58.74,63,21.26,64.83,51.8"/><path d="M272.27,235.88c0,23.46-21.17,42.47-47.28,42.47s-47.25-19-47.25-42.47,21.15-42.46,47.25-42.46,47.28,19,47.28,42.46"/><polygon points="283.63 159.9 166.38 159.9 180.4 133.03 269.61 133.03 283.63 159.9"/><polygon class="cls-5" points="283.63 159.9 166.38 159.9 180.4 133.03 269.61 133.03 283.63 159.9"/></g></g></g></g></g></svg>