<svg xmlns="http://www.w3.org/2000/svg" xmlns:xlink="http://www.w3.org/1999/xlink" viewBox="0 0 450 450"><defs><style>.cls-1,.cls-4{fill:none;}.cls-2{fill:#fff;}.cls-3{clip-path:url(#clip-path);}.cls-4{stroke:#000;stroke-linecap:round;stroke-linejoin:round;stroke-width:17.84px;}.cls-5{clip-path:url(#clip-path-2);}</style><clipPath id="clip-path"><rect class="cls-1" x="73.84" y="104.07" width="302.33" height="241.86"/></clipPath><clipPath id="clip-path-2"><rect class="cls-1" x="73.84" y="104.07" width="302.33" height="241.86"/></clipPath></defs><g id="Layer_2" data-name="Layer 2"><g id="Layer_1-2" data-name="Layer 1"><rect class="cls-2" width="450" height="450"/><g id="Artwork_2" data-name="Artwork 2"><g class="cls-3"><polygon points="280.3 289.71 252.68 274.34 312.99 166.57 340.87 181.44 280.3 289.71"/><polygon class="cls-4" points="280.3 289.71 252.68 274.34 312.99 166.57 340.87 181.44 280.3 289.71"/><polygon points="326.63 143.91 353.5 160.55 367.54 135.5 340.57 118.96 326.63 143.91"/><g class="cls-5"><polygon class="cls-4" points="353.51 160.55 326.61 143.91 340.58 118.96 367.52 135.5 353.51 160.55"/></g><polygon points="280.3 289.71 257.22 297.38 252.68 274.45 273.06 267.92 280.3 289.71"/><polygon class="cls-4" points="280.3 289.71 257.22 297.38 252.68 274.45 273.06 267.92 280.3 289.71"/><g class="cls-5"><path d="M243.43,312.7c-10.2,16.89-29.48,19.86-46.93,19-7.37-.33-16-.74-22.48-5-10.25-6.67-8.11-16.34-2.79-25.65,15.9-27.84,41.39-50.32,45.34-84.44,1.42-12.14.07-26.47-9-35.06-9.38-8.93-23.63-9-35-4.85-13.91,5.09-24.51,15.69-35.49,25.67-6.09,5.5-13.86,13.21-22.25,13.89-9.21.75-20.54-6.51-25-14.87-10-18.88,4.09-38.51,15.76-51.86,9.7-11.11,19.21-22,23.18-37,2.28-8.57-10.2-12.22-12.48-3.67-4.47,16.83-18,27.54-28,40.58-9.62,12.56-16.35,28-14.17,44.51C76.38,210.2,87,221.56,100.9,227.3c15.26,6.27,27.76,0,39.83-10.22,14-11.76,32.43-35.21,52.7-28.25,22.32,7.65,6.14,45.46-1.73,58.76-9.93,16.78-23.16,31.08-32.61,48.23-7.14,13-8.44,26.95,2.51,38.18,12,12.36,33.29,12.8,48.83,11.36,17.9-1.64,34.21-9.18,44.17-25.67,4.54-7.51-6.66-14.44-11.17-7"/></g></g></g></g></g></svg>