<svg xmlns="http://www.w3.org/2000/svg" viewBox="0 0 117 117"><defs><style>.cls-1{fill:#42576b;stroke:#000;stroke-width:6px;}.cls-1,.cls-4{stroke-miterlimit:10;}.cls-2{fill:#fff;}.cls-3{fill:#8dafc1;}.cls-4{fill:none;stroke:#292727;stroke-width:7px;}</style></defs><g id="Layer_2" data-name="Layer 2"><g id="Layer_1-2" data-name="Layer 1"><circle class="cls-1" cx="58.5" cy="58.5" r="55"/><path class="cls-2" d="M8.64,87.5V29.08a56.23,56.23,0,0,1,8.57-8.54c2.06,17.66,3.9,35.35,5.69,53,2.11-20.23,4-40.48,6-60.73A54.87,54.87,0,0,1,39.47,8.47v99.64a54.39,54.39,0,0,1-6.65-2.48V31.1c-2.17,23.71-4.37,47.42-6.77,71.11a56.66,56.66,0,0,1-6.27-4.15c-1.86-19.92-3.75-39.84-6-59.72V93A55.54,55.54,0,0,1,8.64,87.5Z"/><path class="cls-2" d="M46.87,110V6.61a56.29,56.29,0,0,1,7.31-1C59.32,29,64.35,52.4,69.48,75.78V6.17a56.8,56.8,0,0,1,6.91,1.41V109a54.85,54.85,0,0,1-7.47,1.49C63.81,87.77,58.85,65,53.84,42.28v68.64A54.8,54.8,0,0,1,46.87,110Z"/><path class="cls-2" d="M84,10.08a54.22,54.22,0,0,1,12.48,6.56,20.91,20.91,0,0,1,5.93,5.91,40.28,40.28,0,0,1,4.38,10,77,77,0,0,1,2.62,12,101.67,101.67,0,0,1,.87,14.27,92.25,92.25,0,0,1-.81,12.85,79,79,0,0,1-3,13.2,40.4,40.4,0,0,1-4.13,9,19.62,19.62,0,0,1-5.56,5.82A54.73,54.73,0,0,1,84,106.51Zm7,18.45V88.11c2-.72,3-1.12,5-2a10.94,10.94,0,0,0,3.87-2.58,13.7,13.7,0,0,0,2.5-4.39,36.71,36.71,0,0,0,1.57-7.7,114.45,114.45,0,0,0,.6-13.13,104.84,104.84,0,0,0-.6-12.77,37.82,37.82,0,0,0-1.71-7.76,13.87,13.87,0,0,0-2.87-5A15.66,15.66,0,0,0,94,29.68C92.83,29.2,92.23,29,91,28.53Z"/><path class="cls-3" d="M11.06,28.44A54.84,54.84,0,0,1,21.28,18.6q2.29,23.91,4.35,47.85Q28,39.66,30.14,12.85A54.3,54.3,0,0,1,42.6,7.72V107a55.5,55.5,0,0,1-7.87-2.89V32.81Q31.93,67,28.91,101.22A53.15,53.15,0,0,1,22.41,97c-1.63-19.4-3.29-38.81-5.18-58.2v54a55.48,55.48,0,0,1-6.17-6.44Z"/><path class="cls-3" d="M49,6.17a57.26,57.26,0,0,1,9.4-1.1c4.15,19.26,8.2,38.55,12.33,57.81V5.66a54.78,54.78,0,0,1,9.36,2v99.4a54.81,54.81,0,0,1-9.36,2Q64.47,80.68,58.45,52.24v57.43a55.86,55.86,0,0,1-9.47-1.1Z"/><path class="cls-3" d="M86.61,10a54,54,0,0,1,13.44,7.51,19.42,19.42,0,0,1,5.84,7.37,50.52,50.52,0,0,1,3.43,9.86,79,79,0,0,1,1.88,11,113.52,113.52,0,0,1,.57,11.47,104.12,104.12,0,0,1-.85,14.88A74.31,74.31,0,0,1,108.49,83,36,36,0,0,1,105,91.34a22.18,22.18,0,0,1-4.93,5.93,54,54,0,0,1-13.44,7.5Zm9.21,24V80.69L98,79.93a6.65,6.65,0,0,0,3.8-3.16,20.32,20.32,0,0,0,1.72-6.28,97.26,97.26,0,0,0,.61-12.92c0-7.77-.45-13.17-1.37-16.46S100.27,35.6,98,34.77C97.15,34.45,96.71,34.3,95.82,34Z"/><circle class="cls-4" cx="58.5" cy="58.5" r="55"/></g></g></svg>