<svg xmlns="http://www.w3.org/2000/svg" viewBox="0 0 117 117"><defs><style>.cls-1{fill:#42576b;stroke:#000;stroke-width:6px;}.cls-1,.cls-4{stroke-miterlimit:10;}.cls-2{fill:#fff;}.cls-3{fill:#8dafc1;}.cls-4{fill:none;stroke:#292727;stroke-width:7px;}</style></defs><g id="Layer_2" data-name="Layer 2"><g id="Layer_1-2" data-name="Layer 1"><circle class="cls-1" cx="58.5" cy="58.5" r="55"/><path class="cls-2" d="M35.67,71.57q-.2-18.87-.18-37.73l-.13,0C34.34,45.94,33.27,58,32,70.07q-1.5,15-3.09,30a55.36,55.36,0,0,1-6.3-3.79q-1.17-14-2.41-28Q18.93,53.9,18,39.5l-.08,0Q17.67,54,17.46,68.4c-.16,10.13-.25,15.15-.41,25.07A55.62,55.62,0,0,1,10.69,87q.8-29.53,1.52-59.06A54.4,54.4,0,0,1,22,19.17c.77,7.87,1.15,12,1.93,20.44q1.43,15,2.33,30.08l.16,0c.87-10.6,1.76-21.2,2.77-31.78.93-9.57,1.4-14.5,2.34-24.56A54.93,54.93,0,0,1,43,8.94q.85,49.55,1.68,99.1a56.1,56.1,0,0,1-8.6-2.81Z"/><path class="cls-2" d="M50.3,109.22V7.3a56.12,56.12,0,0,1,10.9-.93l5.49,31.91c2,12,3.78,24,5.4,36h.14c-.53-14.34-.64-28.68-.69-43V7.1a57.69,57.69,0,0,1,8.31,1.77v98.78a57.43,57.43,0,0,1-9.61,1.94q-2.94-17-5.85-34c-2.18-12.44-4.15-24.92-5.83-37.44h-.18c.26,15.48.32,31,.35,46.44v25.46A58.19,58.19,0,0,1,50.3,109.22Z"/><path class="cls-2" d="M86,12.21c2.77-.25,6.44.75,10,2.94,5.83,3.54,9.12,9.14,11.74,15.78,2.92,7.38,4.59,15.49,4.59,26,0,11.67-1.85,20.27-4.42,27.26-2.9,7.85-7.47,15-13.49,18.42-4,2.26-6.79,2.61-8.46,2.5Zm8.49,72.1A3.26,3.26,0,0,0,96.22,84c7.69-3.8,8.92-18.18,8.76-26.78-.25-13.83-3.16-22.46-8-24.29a3.91,3.91,0,0,0-2.49-.31Z"/><path class="cls-3" d="M33.33,71.75q-.19-18.69-.18-37.37l-.13,0c-1,12-2.07,23.91-3.34,35.85Q28.2,85.11,26.61,99.93a53.6,53.6,0,0,1-6.23-3.75c-1-11.56-1.45-17.12-2.39-27.71Q16.75,54.24,15.78,40l-.08,0q-.21,14.3-.41,28.59c-.16,10-.25,15-.41,24.82A53,53,0,0,1,8.59,87q.78-29.23,1.5-58.49a53.79,53.79,0,0,1,9.67-8.69c.76,7.79,1.14,11.85,1.91,20.25C22.6,50,23.39,60,24,69.89l.15,0c.86-10.49,1.75-21,2.75-31.48C27.8,29,28.26,24.08,29.2,14.11A54.22,54.22,0,0,1,40.57,9.72q.82,49.08,1.66,98.16a56.18,56.18,0,0,1-8.52-2.79Q33.52,88.43,33.33,71.75Z"/><path class="cls-3" d="M47.81,109.05V8.09a56.74,56.74,0,0,1,10.8-.92Q61.34,23,64.05,38.78c2,11.88,3.74,23.75,5.35,35.7h.14c-.53-14.2-.69-28.42-.68-42.63V7.9a55.56,55.56,0,0,1,8.23,1.75v97.84a55.58,55.58,0,0,1-9.52,1.92q-2.92-16.81-5.8-33.63Q58.64,57.26,56,38.69h-.18c.25,15.33.32,30.67.35,46V109.9A55.87,55.87,0,0,1,47.81,109.05Z"/><path class="cls-3" d="M83.17,13c2.74-.25,6.37.74,9.94,2.91,5.78,3.51,9,9.05,11.63,15.63a67.68,67.68,0,0,1,4.55,25.77c0,11.57-1.83,20.08-4.38,27-2.87,7.77-7.39,14.84-13.36,18.24-3.92,2.23-6.73,2.58-8.38,2.48Zm8.41,71.41A3.07,3.07,0,0,0,93.3,84c7.61-4,8.82-17.29,8.68-26.52-.21-13.74-3.14-22.24-7.94-24.06a3.89,3.89,0,0,0-2.46-.31Z"/><circle class="cls-4" cx="58.5" cy="58.5" r="55"/></g></g></svg>