<svg xmlns="http://www.w3.org/2000/svg" viewBox="0 0 2500 500"><defs><style>.cls-1{fill:#fff;}.cls-2{fill:#bdd1d5;stroke:#000;stroke-miterlimit:10;}</style></defs><g id="Layer_2" data-name="Layer 2"><g id="Layer_1-2" data-name="Layer 1"><rect class="cls-1" width="500" height="500"/><path class="cls-2" d="M265,271.18c-7.56-2,.34-7.81.9-9.46.34-1,.49-3.08-.27-3.93-1.07-1.19-5-.83-5.11-.81a37.19,37.19,0,0,1-8.68,1c-3.71,0-4.56,1.27-7.17,3.68-2.83,2.61-3.6,3.49-3.41,7.27a3.3,3.3,0,0,1-2.54,3.3,52,52,0,0,1-19.8,1.33c-3.93-.49-7.9-1.45-11.83-.91s-7.91,3.14-8.16,6.77c-.21,3,2.12,6.41-.79,8.76a6.07,6.07,0,0,1-3.63,1.24,213.41,213.41,0,0,1-25.54-.65c-4.14-.29-6.64-1.25-10.25,1.15-1.87,1.25-2.07,3.81-1.75,5.91.72,4.75,5.6,5.5,10.75,5.26l8.43-.52a4.91,4.91,0,0,1,4.61,2.38c1.7,3.23.91,3.81-2.26,5.29a6,6,0,0,0-3.45,4.63c-.19,1.16,1.53,3,2.77,2.68,4-1,3.27-.43,7.44-.64,2.07-.11,4.28-.1,5.67,2.14a5.52,5.52,0,0,1,.44,4.77c-.45,1.23-.62,1.75-2.93,4.31-2,2.27-2.4,3.61-1,6.27,2.12,1.94,8.35-.73,10.3-2.81,8.57-9.12,14-8.92,27.14-8.91,4.13,0,8.85.86,10.95,4.12,1.69,2.64,1.11,6,2.37,8.87,2.35,5.32,10.58,6.63,16.1,3.91C259.49,335,262.67,330,265,325a2.43,2.43,0,0,1,1.7-1.32c3.86-.86,8.22,1.34,10.4,4.52,2.43,3.53,1.34,8.23,3,12.06,1.48,3.43,2.09,2.18,4,6,.65,1.3,2,1.75,3.32,2.55,1,.63,3.21.9,4.4,1.15,9.11,1.86,11.42-3.21,15.45-10.92,4.75-9.07,3.1-9.81,3.07-19.87a5.2,5.2,0,0,1,1-3.63c1.37-1.52,3.88-1.53,6-1.4l9.12.53c4.26.25,8.81.43,12.48-1.55s5.49-6.7,3-9.59a1.2,1.2,0,0,0-.72-.37l-7.87-1.31a1.61,1.61,0,0,1-1-.57c-.91-1.21,1-2.68.62-4.25-.05-.21-.13-1.43,1.73-1.89a2.66,2.66,0,0,0,1.36-1.44c.29-.63.5-1.17,3.07-2.21,3.15-1.29,3.4-1.19,3.43-3,0-1.29-3.15-3.68-4.54-3.81-16.75-1.55-13.11-.87-16.55-1.58-.95-.19-1.55-1-1.05-1.77a20.21,20.21,0,0,0,2.77-6.34,2.28,2.28,0,0,0-2-2.7c-10.19-1.71-20.48,8.05-31.47,6.89a6.47,6.47,0,0,1-3.81-1.61c-4-3.9,3-8.4.54-11.85a13.67,13.67,0,0,0-15.54,1c-3,2.53-2.05,5-6.06,4.42"/><path class="cls-2" d="M206.09,306.8a43.91,43.91,0,0,1,87.82,0"/><rect class="cls-1" x="500" width="500" height="500"/><path class="cls-2" d="M762.19,268.74c-6.12-1.62.28-6.48.73-7.84.28-.82.4-2.56-.22-3.26-.86-1-4-.69-4.14-.67a29.27,29.27,0,0,1-7,.79c-3,0-3.69,1.05-5.81,3.05-2.29,2.17-2.91,2.9-2.76,6a2.73,2.73,0,0,1-2.06,2.74,41.35,41.35,0,0,1-16,1.11c-3.19-.42-6.4-1.21-9.59-.76s-6.41,2.6-6.62,5.61c-.17,2.52,1.73,5.32-.63,7.27a4.87,4.87,0,0,1-2.94,1,168.42,168.42,0,0,1-20.71-.53c-3.35-.24-5.38-1-8.3.95-1.52,1-1.69,3.16-1.43,4.9.59,3.94,4.54,4.56,8.72,4.36l6.83-.43a4,4,0,0,1,3.74,2c1.38,2.68.74,3.16-1.83,4.39a5,5,0,0,0-2.8,3.84c-.15,1,1.24,2.47,2.24,2.22,3.28-.8,2.65-.35,6-.53,1.68-.09,3.47-.08,4.6,1.78a4.64,4.64,0,0,1,.36,3.95c-.37,1-.51,1.45-2.38,3.58-1.65,1.88-1.94,3-.85,5.2,1.72,1.61,6.77-.61,8.35-2.33,6.94-7.57,11.34-7.4,22-7.39,3.35,0,7.17.71,8.87,3.41,1.38,2.19.91,5,1.92,7.36,1.91,4.41,8.58,5.49,13.05,3.24,4.22-2.13,6.8-6.23,8.71-10.37a2,2,0,0,1,1.38-1.1c3.13-.71,6.66,1.12,8.43,3.75,2,2.93,1.08,6.82,2.43,10,1.2,2.85,1.69,1.81,3.21,5,.53,1.09,1.64,1.46,2.69,2.12a13.24,13.24,0,0,0,3.57.95c7.39,1.55,9.26-2.66,12.52-9.05,3.85-7.52,2.52-8.13,2.49-16.48a4.44,4.44,0,0,1,.83-3c1.12-1.27,3.15-1.27,4.9-1.17l7.4.44c3.45.21,7.13.36,10.11-1.29s4.45-5.55,2.42-7.94a.9.9,0,0,0-.58-.31l-6.38-1.09a1.29,1.29,0,0,1-.83-.47c-.73-1,.79-2.22.51-3.52,0-.18-.11-1.19,1.4-1.57a2.14,2.14,0,0,0,1.1-1.2c.24-.52.41-1,2.49-1.83,2.55-1.07,2.76-1,2.78-2.47,0-1.07-2.56-3.05-3.68-3.16-13.58-1.29-10.62-.72-13.41-1.31-.77-.16-1.26-.84-.86-1.47a16.82,16.82,0,0,0,2.25-5.25,1.88,1.88,0,0,0-1.6-2.24c-8.26-1.43-16.6,6.67-25.5,5.71a5.07,5.07,0,0,1-3.09-1.34c-3.28-3.23,2.46-7,.43-9.82A10.89,10.89,0,0,0,767,265c-2.41,2.11-1.65,4.16-4.91,3.67"/><path class="cls-2" d="M706.09,289a43.91,43.91,0,0,1,87.82,0"/><rect class="cls-1" x="1000" width="500" height="500"/><ellipse class="cls-2" cx="1250" cy="288.96" rx="69.22" ry="27.88"/><path class="cls-2" d="M1206.09,289a43.91,43.91,0,0,1,87.82,0"/><rect class="cls-1" x="1500" width="500" height="500"/><ellipse class="cls-2" cx="1750" cy="288.96" rx="52.85" ry="27.88"/><path class="cls-2" d="M1706.09,280.28a43.91,43.91,0,0,1,87.82,0"/><rect class="cls-1" x="2000" width="500" height="500"/><ellipse class="cls-2" cx="2250" cy="264.43" rx="43.91" ry="43.81"/></g></g></svg>