<svg xmlns="http://www.w3.org/2000/svg" viewBox="0 0 2500 500"><defs><style>.cls-1{fill:#fff;}.cls-2{fill:#bdd1d5;}.cls-2,.cls-3,.cls-4{stroke:#000;}.cls-2,.cls-4{stroke-miterlimit:10;}.cls-4{fill:none;}</style></defs><g id="Layer_2" data-name="Layer 2"><g id="Layer_1-2" data-name="Layer 1"><rect class="cls-1" x="500" width="500" height="500"/><rect class="cls-1" width="500" height="500"/><ellipse class="cls-2" cx="240.99" cy="296.89" rx="75.83" ry="23.29"/><path class="cls-2" d="M254.29,266.85c-9.11-2.58,2.86-10.53,3.54-12.7.4-1.3-.16-3.48-.29-5a4.38,4.38,0,0,0-1-1.31c-4.93-1.67-9.55-1.55-14.75-1.54-4.47,0-9.31.77-12.46,3.95-3.41,3.44-3.87,8.57-3.65,13.56a4.3,4.3,0,0,1-3.06,4.34,57.49,57.49,0,0,1-23.87,1.76c-4.75-.65-9.53-1.91-14.27-1.2s-9.54,4.13-9.84,8.92c-.26,4,2.56,8.45-1,11.54a6.9,6.9,0,0,1-4.37,1.63A364.7,364.7,0,0,1,131,289.9c-5-.38-10.22-.84-14.56,2.32a7.64,7.64,0,0,0-3.23,7.12c.87,6.26,9.1,7.45,15.32,7.13l18.59-1a5.81,5.81,0,0,1,5.56,3.13c2.06,4.26-2.84,7.42-6.66,9.37-2.55,1.3-5.21,3.9-5.58,6.39a2.18,2.18,0,0,0,2.76,2.34,76.79,76.79,0,0,1,14.91-2.35c2.49-.14,5.16-.13,6.83,2.83a7.82,7.82,0,0,1,.53,6.28c-1.4,4.27-5.07,7-7.85,10.42-2.46,3-4.28,7.16-2.65,10.67,2.55,2.56,6.6-.63,9-3.37A55.93,55.93,0,0,1,205.85,332c5,0,10.67,1.12,13.2,5.42,2,3.47,1.34,7.95,2.86,11.69,2.83,7,12.76,8.72,19.41,5.14,6.27-3.38,10.11-9.89,13-16.48a3,3,0,0,1,2-1.74c4.66-1.13,9.91,1.78,12.55,6,2.93,4.65,3.4,10.39,3.6,15.89s.26,11.18,2.52,16.19a10.36,10.36,0,0,0,3.43,4.43,12.09,12.09,0,0,0,4.13,1.56c11,2.45,24.39-.85,29.25-11,5.73-12-2.86-25.74-2.9-39a7.34,7.34,0,0,1,1.24-4.78c1.66-2,4.68-2,7.28-1.85l11,.7c5.14.33,10.62.57,15.05-2,4.27-2.53,6.62-8.83,3.6-12.63a1.44,1.44,0,0,0-.87-.49l-9.48-1.73a1.87,1.87,0,0,1-1.23-.74c-1.1-1.61-.63-4.11.74-5.6,1.58-1.71,3.93-2.42,6.17-3A172.15,172.15,0,0,1,367,293.24c5.23-.6,10.77-1.06,15.07-4.1,3.45-2.43,5.57-7.19,4.49-11a4.1,4.1,0,0,0-3.59-2.9c-20.2-2.05-40.27,8.24-60.58,7.39a1.54,1.54,0,0,1-1.27-2.33,27.73,27.73,0,0,0,3.34-8.35,3,3,0,0,0-2.38-3.55c-12.28-2.27-24.69,10.59-37.93,9.07a7.44,7.44,0,0,1-4.6-2.12c-4.87-5.13,3.66-11.07.65-15.62A15.4,15.4,0,0,0,261.43,261c-3.58,3.34-2.46,6.6-7.3,5.83"/><path class="cls-3" d="M811,231.32l.25-2.26c.27-4.75,3.36-9.73,12-12.33,7.7-2.33,13-3.41,14.67-6.95,1.9-4-2-9.67-12.92-12.8-6.25-1.79-13.69-1.93-18.27-.72-1.48-2.35-2.28-3.51-4-5.8,6.3-1.74,18.25-1.93,27.24,1.48,8.48,3.22,27.88,13.42,21.63,24.59-2.63,4.71-10.9,4.85-19.26,6.32-7.65,1.34-10.74,4.55-11.91,8.85l-.66,2.16A56.88,56.88,0,0,0,811,231.32Zm-4.66,11.49c.57-3.17,3.58-5,7.13-4s5,4.12,3.83,7.11a5.74,5.74,0,0,1-11-3.15Z"/><line class="cls-4" x1="202.41" y1="251.9" x2="183.69" y2="227.98"/><line class="cls-4" x1="181.65" y1="259.39" x2="173.48" y2="254.96"/><line class="cls-4" x1="162.59" y1="277.09" x2="120.37" y2="262.45"/><line class="cls-4" x1="177.56" y1="346.54" x2="172.12" y2="389.43"/><line class="cls-4" x1="197.99" y1="346.54" x2="197.31" y2="361.85"/><line class="cls-4" x1="210.93" y1="356.75" x2="213.99" y2="398.96"/><line class="cls-4" x1="238.5" y1="361.17" x2="237.14" y2="366.62"/><line class="cls-4" x1="250.07" y1="360.15" x2="250.07" y2="405.77"/><line class="cls-4" x1="352.54" y1="313.82" x2="438.67" y2="315.9"/><line class="cls-4" x1="379.78" y1="301.94" x2="386.24" y2="301.94"/><line class="cls-4" x1="390.67" y1="283.9" x2="409.05" y2="271.98"/><line class="cls-4" x1="386.24" y1="265.85" x2="406.33" y2="226.96"/><line class="cls-4" x1="362.76" y1="264.43" x2="365.14" y2="257.17"/><line class="cls-4" x1="336.88" y1="260.8" x2="359.69" y2="222.28"/><line class="cls-4" x1="303.52" y1="264.43" x2="308.97" y2="257.17"/><line class="cls-4" x1="275.95" y1="246.41" x2="276.97" y2="209"/><line class="cls-4" x1="254.16" y1="237.94" x2="256.88" y2="223.98"/><line class="cls-4" x1="227.95" y1="237.6" x2="224.88" y2="195.73"/><line class="cls-4" x1="214.33" y1="244.41" x2="210.59" y2="232.49"/><line class="cls-4" x1="290.93" y1="391.81" x2="288.2" y2="409.17"/><line class="cls-4" x1="306.24" y1="385" x2="329.73" y2="398.62"/><line class="cls-4" x1="321.9" y1="363.9" x2="390.33" y2="385.68"/><line class="cls-4" x1="327.94" y1="347.22" x2="335.86" y2="348.58"/><line class="cls-4" x1="336.54" y1="332.24" x2="375.01" y2="334.62"/><path class="cls-2" d="M754.29,266.85c-9.11-2.58,2.86-10.53,3.54-12.7.4-1.3-.16-3.48-.29-5a4.38,4.38,0,0,0-1-1.31c-4.93-1.67-9.55-1.55-14.75-1.54-4.47,0-9.31.77-12.46,3.95-3.41,3.44-3.87,8.57-3.65,13.56a4.3,4.3,0,0,1-3.06,4.34,57.49,57.49,0,0,1-23.87,1.76c-4.75-.65-9.53-1.91-14.27-1.2s-9.54,4.13-9.84,8.92c-.26,4,2.56,8.45-1,11.54a6.9,6.9,0,0,1-4.37,1.63A364.7,364.7,0,0,1,631,289.9c-5-.38-10.22-.84-14.56,2.32a7.64,7.64,0,0,0-3.23,7.12c.87,6.26,9.1,7.45,15.32,7.13l18.59-1a5.81,5.81,0,0,1,5.56,3.13c2.06,4.26-2.84,7.42-6.66,9.37-2.55,1.3-5.21,3.9-5.58,6.39a2.18,2.18,0,0,0,2.76,2.34,76.79,76.79,0,0,1,14.91-2.35c2.49-.14,5.16-.13,6.83,2.83a7.82,7.82,0,0,1,.53,6.28c-1.4,4.27-5.07,7-7.85,10.42-2.46,3-4.28,7.16-2.65,10.67,2.55,2.56,6.6-.63,9-3.37A55.93,55.93,0,0,1,705.85,332c5,0,10.67,1.12,13.2,5.42,2.05,3.47,1.34,7.95,2.86,11.69,2.83,7,12.76,8.72,19.41,5.14,6.27-3.38,10.11-9.89,12.95-16.48a3,3,0,0,1,2.05-1.74c4.66-1.13,9.91,1.78,12.55,6,2.93,4.65,3.4,10.39,3.6,15.89s.26,11.18,2.52,16.19a10.36,10.36,0,0,0,3.43,4.43,12.09,12.09,0,0,0,4.13,1.56c11,2.45,24.39-.85,29.25-11,5.73-12-2.86-25.74-2.9-39a7.34,7.34,0,0,1,1.24-4.78c1.66-2,4.68-2,7.28-1.85l11,.7c5.14.33,10.62.57,15.05-2,4.27-2.53,6.62-8.83,3.6-12.63a1.44,1.44,0,0,0-.87-.49l-9.48-1.73a1.87,1.87,0,0,1-1.23-.74c-1.1-1.61-.63-4.11.74-5.6,1.58-1.71,3.93-2.42,6.17-3A172.15,172.15,0,0,1,867,293.24c5.23-.6,10.77-1.06,15.07-4.1,3.45-2.43,5.57-7.19,4.49-11a4.1,4.1,0,0,0-3.59-2.9c-20.2-2.05-40.27,8.24-60.58,7.39a1.54,1.54,0,0,1-1.27-2.33,27.73,27.73,0,0,0,3.34-8.35,3,3,0,0,0-2.38-3.55c-12.28-2.27-24.69,10.59-37.93,9.07a7.44,7.44,0,0,1-4.6-2.12c-4.87-5.13,3.66-11.07.65-15.62A15.4,15.4,0,0,0,761.43,261c-3.58,3.34-2.46,6.6-7.3,5.83"/><rect class="cls-1" x="1000" width="500" height="500"/><path class="cls-3" d="M1346.05,240.09l.25-2.26c.27-4.75,3.36-9.73,12-12.33,7.7-2.32,13-3.41,14.67-6.95,1.9-4-2-9.67-12.92-12.8-6.25-1.79-13.69-1.93-18.27-.72-1.49-2.35-2.28-3.51-4-5.8,6.3-1.74,18.25-1.93,27.24,1.48,8.48,3.22,27.88,13.43,21.63,24.6-2.63,4.7-10.9,4.84-19.26,6.31-7.65,1.35-10.74,4.55-11.91,8.85-.26.87-.4,1.3-.66,2.17A55.82,55.82,0,0,0,1346.05,240.09Zm-4.66,11.5c.57-3.17,3.58-5,7.13-4s5,4.13,3.83,7.11a5.74,5.74,0,0,1-11-3.14Z"/><path class="cls-2" d="M1254.29,266.85c-9.11-2.58,2.86-10.53,3.54-12.7.4-1.3-.16-3.48-.29-5a4.38,4.38,0,0,0-1-1.31c-4.93-1.67-9.55-1.55-14.75-1.54-4.47,0-9.31.77-12.46,3.95-3.41,3.44-3.87,8.57-3.65,13.56a4.3,4.3,0,0,1-3.06,4.34,57.49,57.49,0,0,1-23.87,1.76c-4.75-.65-9.53-1.91-14.27-1.2s-9.54,4.13-9.84,8.92c-.26,4,2.56,8.45-.95,11.54a6.9,6.9,0,0,1-4.37,1.63,364.7,364.7,0,0,1-38.27-.93c-5-.38-10.22-.84-14.56,2.32a7.64,7.64,0,0,0-3.23,7.12c.87,6.26,9.1,7.45,15.32,7.13l18.59-1a5.81,5.81,0,0,1,5.56,3.13c2.06,4.26-2.84,7.42-6.66,9.37-2.55,1.3-5.21,3.9-5.58,6.39a2.18,2.18,0,0,0,2.76,2.34,76.79,76.79,0,0,1,14.91-2.35c2.49-.14,5.16-.13,6.83,2.83a7.82,7.82,0,0,1,.53,6.28c-1.4,4.27-5.07,7-7.85,10.42-2.46,3-4.28,7.16-2.65,10.67,2.55,2.56,6.6-.63,9-3.37A55.93,55.93,0,0,1,1205.85,332c5,0,10.67,1.12,13.2,5.42,2,3.47,1.34,7.95,2.86,11.69,2.83,7,12.76,8.72,19.41,5.14,6.27-3.38,10.11-9.89,13-16.48a3,3,0,0,1,2-1.74c4.66-1.13,9.91,1.78,12.55,6,2.93,4.65,3.4,10.39,3.6,15.89s.26,11.18,2.52,16.19a10.36,10.36,0,0,0,3.43,4.43,12.09,12.09,0,0,0,4.13,1.56c11,2.45,24.39-.85,29.25-11,5.73-12-2.86-25.74-2.9-39a7.34,7.34,0,0,1,1.24-4.78c1.66-2,4.68-2,7.28-1.85l11,.7c5.14.33,10.62.57,15-2,4.27-2.53,6.62-8.83,3.6-12.63a1.44,1.44,0,0,0-.87-.49l-9.48-1.73a1.87,1.87,0,0,1-1.23-.74c-1.1-1.61-.63-4.11.74-5.6,1.58-1.71,3.93-2.42,6.17-3a172.15,172.15,0,0,1,24.58-4.68c5.23-.6,10.77-1.06,15.07-4.1,3.45-2.43,5.57-7.19,4.49-11a4.1,4.1,0,0,0-3.59-2.9c-20.2-2.05-40.27,8.24-60.58,7.39a1.54,1.54,0,0,1-1.27-2.33,27.73,27.73,0,0,0,3.34-8.35,3,3,0,0,0-2.38-3.55c-12.28-2.27-24.69,10.59-37.93,9.07a7.44,7.44,0,0,1-4.6-2.12c-4.87-5.13,3.66-11.07.65-15.62a15.4,15.4,0,0,0-18.75,1.27c-3.58,3.34-2.46,6.6-7.3,5.83"/><path class="cls-2" d="M1185.36,302.57c0-10.47,29-17.64,64.64-18.95,32.43-1.2,63.48,8.06,64.64,18.95"/><rect class="cls-1" x="1500" width="500" height="500"/><path class="cls-3" d="M1811,242.41l.25-2.26c.27-4.74,3.36-9.73,12-12.33,7.7-2.32,13-3.41,14.67-6.95,1.9-4-2-9.66-12.92-12.8-6.25-1.79-13.69-1.92-18.27-.72-1.48-2.34-2.28-3.51-4-5.8,6.3-1.73,18.25-1.92,27.24,1.49,8.48,3.22,27.88,13.42,21.63,24.59-2.63,4.71-10.9,4.84-19.26,6.31-7.65,1.35-10.74,4.56-11.91,8.85-.26.87-.4,1.3-.66,2.17A55.82,55.82,0,0,0,1811,242.41Zm-4.66,11.5c.57-3.17,3.58-5,7.13-4s5,4.13,3.83,7.11a5.74,5.74,0,0,1-11-3.14Z"/><path class="cls-2" d="M1753.84,268.73c-8.16-2.36,2.57-9.61,3.17-11.59.36-1.19-.14-3.17-.26-4.54a4.08,4.08,0,0,0-.91-1.19c-4.41-1.52-8.55-1.41-13.21-1.41-4,0-8.34.71-11.16,3.61-3.06,3.14-3.47,7.82-3.27,12.37a3.93,3.93,0,0,1-2.74,4,50.68,50.68,0,0,1-21.38,1.61c-4.25-.6-8.54-1.75-12.78-1.1s-8.55,3.77-8.82,8.13c-.23,3.65,2.3,7.71-.85,10.53a6.13,6.13,0,0,1-3.92,1.48,321.21,321.21,0,0,1-34.27-.84c-4.47-.35-9.15-.77-13,2.11a7,7,0,0,0-2.89,6.5c.78,5.71,8.16,6.79,13.72,6.5l16.66-.87a5.16,5.16,0,0,1,5,2.86c1.85,3.88-2.54,6.76-6,8.54-2.28,1.19-4.66,3.56-5,5.83a2,2,0,0,0,2.47,2.14,67,67,0,0,1,13.35-2.14c2.23-.13,4.62-.12,6.12,2.58a7.25,7.25,0,0,1,.47,5.72c-1.25,3.9-4.54,6.42-7,9.51-2.21,2.72-3.84,6.53-2.38,9.73,2.29,2.33,5.92-.58,8-3.08a49.77,49.77,0,0,1,37.52-17.52c4.47,0,9.56,1,11.83,4.94,1.83,3.17,1.2,7.25,2.56,10.67,2.53,6.39,11.43,8,17.39,4.69,5.61-3.09,9-9,11.6-15a2.72,2.72,0,0,1,1.83-1.59c4.18-1,8.88,1.62,11.24,5.43,2.63,4.24,3,9.49,3.23,14.5s.23,10.19,2.26,14.76a9.36,9.36,0,0,0,3.07,4,10.56,10.56,0,0,0,3.7,1.43c9.83,2.23,21.84-.77,26.2-10,5.13-10.91-2.57-23.47-2.61-35.56a6.85,6.85,0,0,1,1.12-4.36c1.48-1.83,4.19-1.84,6.52-1.69l9.86.64c4.59.3,9.51.53,13.47-1.86s5.93-8.05,3.23-11.51a1.29,1.29,0,0,0-.78-.46l-8.5-1.57a1.66,1.66,0,0,1-1.1-.68,4.43,4.43,0,0,1,.67-5.11c1.41-1.55,3.51-2.2,5.52-2.75a151.52,151.52,0,0,1,22-4.26c4.68-.56,9.65-1,13.5-3.75,3.09-2.21,5-6.56,4-10.05a3.72,3.72,0,0,0-3.22-2.65c-18.09-1.86-36.07,7.52-54.26,6.75a1.42,1.42,0,0,1-1.14-2.13,25.67,25.67,0,0,0,3-7.61,2.71,2.71,0,0,0-2.13-3.24c-11-2.07-22.12,9.66-34,8.27a6.59,6.59,0,0,1-4.12-1.94c-4.36-4.68,3.28-10.09.58-14.24a13.58,13.58,0,0,0-16.79,1.16c-3.21,3.05-2.21,6-6.54,5.31"/><path class="cls-2" d="M1685.36,302.57c0-18.27,29-30.8,64.64-33.09,32.43-2.09,63.48,14.08,64.64,33.09"/><rect class="cls-1" x="2000" width="500" height="500"/><path class="cls-3" d="M2305.27,249c.1-.91.15-1.36.24-2.26.27-4.75,3.36-9.74,12-12.33,7.7-2.33,13-3.42,14.67-7,1.89-4-2-9.66-12.92-12.79-6.25-1.79-13.69-1.93-18.27-.72-1.49-2.35-2.28-3.52-4-5.81,6.31-1.73,18.26-1.92,27.25,1.49,8.47,3.22,27.88,13.42,21.63,24.59-2.64,4.71-10.91,4.84-19.27,6.31-7.65,1.35-10.73,4.56-11.9,8.85l-.67,2.17A55.36,55.36,0,0,0,2305.27,249Zm-4.66,11.49c.56-3.17,3.58-5,7.13-4s5,4.13,3.83,7.12a5.74,5.74,0,0,1-11-3.15Z"/><path class="cls-2" d="M2253.56,271.35c-7.56-2,2.37-8,2.93-9.64.34-1-.13-2.64-.24-3.78a3.4,3.4,0,0,0-.84-1c-4.09-1.27-7.92-1.18-12.24-1.17-3.71,0-7.71.59-10.33,3-2.83,2.61-3.21,6.51-3,10.3a3.31,3.31,0,0,1-2.54,3.29,52,52,0,0,1-19.8,1.34c-3.94-.5-7.9-1.45-11.83-.91s-7.92,3.13-8.17,6.76c-.21,3,2.13,6.42-.79,8.77a6,6,0,0,1-3.62,1.23c-10.58.28-21.18,0-31.74-.7-4.13-.29-8.47-.64-12.07,1.76a5.63,5.63,0,0,0-2.68,5.41c.73,4.75,7.55,5.65,12.7,5.41l15.43-.73a4.92,4.92,0,0,1,4.6,2.38c1.71,3.24-2.35,5.63-5.52,7.11-2.11,1-4.32,3-4.62,4.85a1.75,1.75,0,0,0,2.28,1.78,69.49,69.49,0,0,1,12.36-1.78c2.08-.11,4.29-.1,5.67,2.15a5.51,5.51,0,0,1,.44,4.76c-1.16,3.25-4.2,5.35-6.51,7.91-2,2.27-3.55,5.44-2.2,8.1,2.12,2,5.48-.47,7.43-2.56,8.57-9.12,21.6-14.59,34.74-14.58,4.14,0,8.85.85,10.95,4.11,1.7,2.64,1.12,6,2.37,8.88,2.35,5.32,10.58,6.62,16.1,3.9,5.2-2.56,8.39-7.5,10.74-12.5a2.43,2.43,0,0,1,1.7-1.32c3.87-.86,8.22,1.34,10.41,4.51,2.43,3.53,2.82,7.9,3,12.07s.21,8.48,2.09,12.29a8,8,0,0,0,2.84,3.36,10.59,10.59,0,0,0,3.43,1.19c9.1,1.86,20.22-.65,24.26-8.35,4.74-9.08-2.38-19.53-2.42-29.6a5.27,5.27,0,0,1,1-3.62c1.38-1.53,3.89-1.53,6-1.41l9.13.53c4.26.25,8.8.44,12.47-1.55s5.5-6.7,3-9.58a1.29,1.29,0,0,0-.73-.38l-7.86-1.31a1.53,1.53,0,0,1-1-.56,3.38,3.38,0,0,1,.62-4.25c1.3-1.3,3.25-1.84,5.11-2.29a154,154,0,0,1,20.38-3.55c4.34-.46,8.94-.81,12.51-3.12,2.85-1.84,4.61-5.46,3.72-8.36a3.38,3.38,0,0,0-3-2.21c-16.75-1.55-33.4,6.26-50.24,5.62a1.18,1.18,0,0,1-1.06-1.78,19.83,19.83,0,0,0,2.77-6.33,2.26,2.26,0,0,0-2-2.7c-10.19-1.72-20.48,8-31.47,6.89a6.4,6.4,0,0,1-3.81-1.62c-4-3.89,3-8.4.54-11.85a13.69,13.69,0,0,0-15.55,1c-3,2.53-2,5-6.06,4.42"/><path class="cls-2" d="M2206.09,306.8a43.91,43.91,0,0,1,87.82,0"/></g></g></svg>