<svg id="Layer_1" data-name="Layer 1" xmlns="http://www.w3.org/2000/svg" xmlns:xlink="http://www.w3.org/1999/xlink" viewBox="0 0 33.83 26.51"><defs><style>.cls-1,.cls-4{fill:none;}.cls-2{clip-path:url(#clip-path);}.cls-3{clip-path:url(#clip-path-2);}.cls-4{stroke:#000;stroke-linecap:round;stroke-linejoin:round;stroke-width:2.06px;}.cls-5{fill:#fff;}</style><clipPath id="clip-path"><rect class="cls-1" x="0.67" y="3.97" width="33" height="20"/></clipPath><clipPath id="clip-path-2"><rect class="cls-1" x="0.67" y="3.97" width="33" height="20"/></clipPath></defs><g id="Artwork_4" data-name="Artwork 4"><g class="cls-2"><rect x="1.77" y="7.57" width="30.8" height="15.44"/><g class="cls-3"><rect class="cls-4" x="1.77" y="7.57" width="30.8" height="15.44"/><path class="cls-5" d="M23.89,14.7c.2,3-2.65,5.58-6.36,5.77s-6.87-2.09-7.07-5.09,2.64-5.59,6.35-5.77,6.88,2.09,7.08,5.09"/><path d="M22.33,15c0,2.3-2.31,4.17-5.16,4.17S12,17.34,12,15s2.31-4.18,5.16-4.18,5.16,1.87,5.16,4.18"/><polygon points="23.57 7.57 10.77 7.57 12.31 4.93 22.04 4.93 23.57 7.57"/><polygon class="cls-4" points="23.57 7.57 10.77 7.57 12.31 4.93 22.04 4.93 23.57 7.57"/></g></g></g></svg>