<svg id="Layer_1" data-name="Layer 1" xmlns="http://www.w3.org/2000/svg" xmlns:xlink="http://www.w3.org/1999/xlink" viewBox="0 0 33.83 26.51"><defs><style>.cls-1,.cls-3{fill:none;}.cls-2{clip-path:url(#clip-path);}.cls-3{stroke:#000;stroke-linecap:round;stroke-linejoin:round;stroke-width:1.66px;}.cls-4{clip-path:url(#clip-path-2);}</style><clipPath id="clip-path"><rect class="cls-1" x="1.84" y="2.97" width="30" height="21"/></clipPath><clipPath id="clip-path-2"><rect class="cls-1" x="1.84" y="2.97" width="30" height="21"/></clipPath></defs><g id="Artwork_2" data-name="Artwork 2"><g class="cls-2"><polygon points="22.33 19.09 19.59 17.75 25.57 8.39 28.34 9.69 22.33 19.09"/><polygon class="cls-3" points="22.33 19.09 19.59 17.75 25.57 8.39 28.34 9.69 22.33 19.09"/><polygon points="26.93 6.43 29.59 7.87 30.99 5.7 28.31 4.26 26.93 6.43"/><g class="cls-4"><polygon class="cls-3" points="29.59 7.87 26.93 6.43 28.31 4.26 30.98 5.7 29.59 7.87"/></g><polygon points="22.33 19.09 20.04 19.75 19.59 17.76 21.61 17.2 22.33 19.09"/><polygon class="cls-3" points="22.33 19.09 20.04 19.75 19.59 17.76 21.61 17.2 22.33 19.09"/><g class="cls-4"><path d="M18.67,21.08c-1,1.47-2.92,1.73-4.66,1.66a5,5,0,0,1-2.23-.44c-1-.58-.8-1.42-.27-2.22,1.57-2.42,4.1-4.37,4.5-7.34a3.32,3.32,0,0,0-.89-3,3.74,3.74,0,0,0-3.47-.42,11.15,11.15,0,0,0-3.52,2.23,4.54,4.54,0,0,1-2.21,1.2,3,3,0,0,1-2.48-1.29c-1-1.64.4-3.34,1.56-4.5A8,8,0,0,0,7.3,3.71c.23-.74-1-1.06-1.24-.32C5.62,4.85,4.28,5.78,3.29,6.91a4.88,4.88,0,0,0-1.41,3.87,3.76,3.76,0,0,0,2.65,2.89,4,4,0,0,0,4-.89c1.39-1,3.22-3.06,5.23-2.45,2.21.66.61,3.95-.17,5.1-1,1.46-2.3,2.7-3.24,4.19a2.37,2.37,0,0,0,.25,3.31c1.19,1.08,3.3,1.11,4.85,1a5.64,5.64,0,0,0,4.38-2.23c.45-.65-.66-1.25-1.11-.61"/></g></g></g></svg>