<svg id="Layer_1" data-name="Layer 1" xmlns="http://www.w3.org/2000/svg" xmlns:xlink="http://www.w3.org/1999/xlink" viewBox="0 0 33.83 26.51"><defs><style>.cls-1,.cls-5{fill:none;}.cls-2{clip-path:url(#clip-path);}.cls-3{fill:#fff;}.cls-4{clip-path:url(#clip-path-2);}.cls-5{stroke:#000;stroke-linecap:round;stroke-linejoin:round;stroke-width:1.27px;}</style><clipPath id="clip-path"><rect class="cls-1" x="2.01" y="2.97" width="31" height="22"/></clipPath><clipPath id="clip-path-2"><rect class="cls-1" x="2.01" y="2.97" width="31" height="22"/></clipPath></defs><g id="Artwork_6" data-name="Artwork 6"><g class="cls-2"><polygon class="cls-3" points="2.68 14.26 8.21 17.74 8.67 24.37 12.06 19.09 19.74 21.52 32.35 3.57 2.68 14.26"/><g class="cls-4"><polygon class="cls-5" points="2.68 14.25 32.35 3.57 19.74 21.52 12.05 19.1 8.67 24.37 8.21 17.74 2.68 14.25"/></g><polygon points="9.07 24.77 15.1 20.06 12.31 19.5 9.07 24.77"/><polygon points="9.08 23.04 11.64 18.75 8.82 18 9.08 23.04"/><polygon points="8.21 17.67 12.26 19.76 32.35 3.57 8.21 17.67"/></g></g></svg>