<svg xmlns="http://www.w3.org/2000/svg" xmlns:xlink="http://www.w3.org/1999/xlink" width="428" height="926" viewBox="0 0 428 926">
  <defs>
    <linearGradient id="linear-gradient" x1="0.5" y1="0.572" x2="0.5" gradientUnits="objectBoundingBox">
      <stop offset="0" stop-color="#bf2a2d"/>
      <stop offset="1" stop-color="#540001"/>
    </linearGradient>
    <linearGradient id="linear-gradient-2" y1="0.5" xlink:href="#linear-gradient"/>
    <clipPath id="clip-Interesser">
      <rect width="428" height="926"/>
    </clipPath>
  </defs>
  <g id="Interesser" clip-path="url(#clip-Interesser)">
    <rect width="428" height="926" fill="#fff"/>
    <g id="Navigation_Bar" data-name="Navigation Bar">
      <rect id="Rectangle_68" data-name="Rectangle 68" width="428" height="20" fill="#fff"/>
      <rect id="Rectangle_69" data-name="Rectangle 69" width="428" height="100" transform="translate(0 20)" fill="url(#linear-gradient)"/>
      <text id="App_navn" data-name="App navn" transform="translate(215 83)" fill="#fff" font-size="40" font-family="Arial-BoldMT, Arial" font-weight="700"><tspan x="-91.113" y="0">App navn</tspan></text>
      <g id="Backward_arrow" data-name="Backward arrow" transform="translate(10 67)">
        <path id="Path_10" data-name="Path 10" d="M20.395,0,16.687,3.708,30.724,17.746H0v5.3H30.724L16.687,37.081l3.708,3.708L40.789,20.395Z" transform="translate(40.789 40.789) rotate(180)" fill="#fff"/>
      </g>
    </g>
    <g id="Progress_Bar" data-name="Progress Bar" transform="translate(0 120)">
      <path id="Track_-_total" data-name="Track - total" d="M0,0H424" transform="translate(4)" fill="none" stroke="#ec9ea0" stroke-linecap="round" stroke-width="10"/>
      <path id="Track_-_active" data-name="Track - active" d="M0,0H321" fill="none" stroke="#000" stroke-linecap="round" stroke-width="10"/>
    </g>
    <g id="Videre" transform="translate(51 739)">
      <rect id="Rectangle_119" data-name="Rectangle 119" width="327" height="48" fill="url(#linear-gradient-2)"/>
      <text id="Opret_Bruger" data-name="Opret Bruger" transform="translate(163 33)" fill="#fff" stroke="rgba(0,0,0,0)" stroke-width="1" font-size="25" font-family="Arial-BoldMT, Arial" font-weight="700"><tspan x="-37.988" y="0">Videre</tspan></text>
    </g>
    <g id="Titel" transform="translate(-3 -372)">
      <rect id="Rectangle_123" data-name="Rectangle 123" width="227" height="37" rx="10" transform="translate(101 519)" fill="url(#linear-gradient-2)"/>
      <text id="Mine_interesser" data-name="Mine interesser" transform="translate(122 527)" fill="#fff" font-size="20" font-family="Arial-BoldMT, Arial" font-weight="700"><tspan x="-73.364" y="18">Mine interesser</tspan></text>
    </g>
    <g id="Interesser-2" data-name="Interesser" transform="translate(-3 -181)">
      <g id="Partner" transform="translate(-84 335)">
        <g id="Rectangle_124" data-name="Rectangle 124" transform="translate(141 186)" fill="#fff" stroke="#4d0e0f" stroke-width="3">
          <rect width="147" height="46" rx="10" stroke="none"/>
          <rect x="1.5" y="1.5" width="144" height="43" rx="8.5" fill="none"/>
        </g>
        <text id="Golf" transform="translate(151 195)" fill="#4d0e0f" font-size="20" font-family="Arial-BoldMT, Arial" font-weight="700"><tspan x="44.505" y="18">Golf</tspan></text>
      </g>
      <g id="Partner-2" data-name="Partner" transform="translate(-83 199)">
        <g id="Rectangle_124-2" data-name="Rectangle 124" transform="translate(141 186)" fill="#fff" stroke="#4d0e0f" stroke-width="3">
          <rect width="147" height="46" rx="10" stroke="none"/>
          <rect x="1.5" y="1.5" width="144" height="43" rx="8.5" fill="none"/>
        </g>
        <text id="Være_kreativ" data-name="Være kreativ" transform="translate(151 195)" fill="#4d0e0f" font-size="20" font-family="Arial-BoldMT, Arial" font-weight="700"><tspan x="4.461" y="18">Være kreativ</tspan></text>
      </g>
      <g id="Partner-3" data-name="Partner" transform="translate(-83 267)">
        <g id="Rectangle_124-3" data-name="Rectangle 124" transform="translate(141 186)" fill="#fff" stroke="#4d0e0f" stroke-width="3">
          <rect width="147" height="46" rx="10" stroke="none"/>
          <rect x="1.5" y="1.5" width="144" height="43" rx="8.5" fill="none"/>
        </g>
        <text id="Ferie" transform="translate(141 195)" fill="#4d0e0f" font-size="20" font-family="Arial-BoldMT, Arial" font-weight="700"><tspan x="48.099" y="18">Ferie</tspan></text>
      </g>
      <g id="Partner-4" data-name="Partner" transform="translate(82 199)">
        <g id="Rectangle_124-4" data-name="Rectangle 124" transform="translate(141 186)" fill="#fff" stroke="#4d0e0f" stroke-width="3">
          <rect width="147" height="46" rx="10" stroke="none"/>
          <rect x="1.5" y="1.5" width="144" height="43" rx="8.5" fill="none"/>
        </g>
        <text id="Sport" transform="translate(151 195)" fill="#4d0e0f" font-size="20" font-family="Arial-BoldMT, Arial" font-weight="700"><tspan x="38.392" y="18">Sport</tspan></text>
      </g>
      <g id="Partner-5" data-name="Partner" transform="translate(-83 403)">
        <g id="Rectangle_124-5" data-name="Rectangle 124" transform="translate(141 186)" fill="#fff" stroke="#4d0e0f" stroke-width="3">
          <rect width="147" height="46" rx="10" stroke="none"/>
          <rect x="1.5" y="1.5" width="144" height="43" rx="8.5" fill="none"/>
        </g>
        <text id="Kunst" transform="translate(151 195)" fill="#4d0e0f" font-size="20" font-family="Arial-BoldMT, Arial" font-weight="700"><tspan x="36.17" y="18">Kunst</tspan></text>
      </g>
      <g id="Partner-6" data-name="Partner" transform="translate(-83 471)">
        <g id="Rectangle_124-6" data-name="Rectangle 124" transform="translate(141 186)" fill="#fff" stroke="#4d0e0f" stroke-width="3">
          <rect width="147" height="46" rx="10" stroke="none"/>
          <rect x="1.5" y="1.5" width="144" height="43" rx="8.5" fill="none"/>
        </g>
        <text id="Musik" transform="translate(151 195)" fill="#4d0e0f" font-size="20" font-family="Arial-BoldMT, Arial" font-weight="700"><tspan x="36.16" y="18">Musik</tspan></text>
      </g>
      <g id="Partner-7" data-name="Partner" transform="translate(82 267)">
        <g id="Rectangle_124-7" data-name="Rectangle 124" transform="translate(141 186)" fill="#fff" stroke="#4d0e0f" stroke-width="3">
          <rect width="147" height="46" rx="10" stroke="none"/>
          <rect x="1.5" y="1.5" width="144" height="43" rx="8.5" fill="none"/>
        </g>
        <text id="Mad" transform="translate(151 195)" fill="#4d0e0f" font-size="20" font-family="Arial-BoldMT, Arial" font-weight="700"><tspan x="44.5" y="18">Mad</tspan></text>
      </g>
      <g id="Partner-8" data-name="Partner" transform="translate(82 335)">
        <g id="Rectangle_124-8" data-name="Rectangle 124" transform="translate(141 186)" fill="#fff" stroke="#4d0e0f" stroke-width="3">
          <rect width="147" height="46" rx="10" stroke="none"/>
          <rect x="1.5" y="1.5" width="144" height="43" rx="8.5" fill="none"/>
        </g>
        <text id="Natur" transform="translate(151 195)" fill="#4d0e0f" font-size="20" font-family="Arial-BoldMT, Arial" font-weight="700"><tspan x="38.387" y="18">Natur</tspan></text>
      </g>
      <g id="Partner-9" data-name="Partner" transform="translate(82 403)">
        <g id="Rectangle_124-9" data-name="Rectangle 124" transform="translate(141 186)" fill="#fff" stroke="#4d0e0f" stroke-width="3">
          <rect width="147" height="46" rx="10" stroke="none"/>
          <rect x="1.5" y="1.5" width="144" height="43" rx="8.5" fill="none"/>
        </g>
        <text id="Se_sport" data-name="Se sport" transform="translate(151 195)" fill="#4d0e0f" font-size="20" font-family="Arial-BoldMT, Arial" font-weight="700"><tspan x="24.49" y="18">Se sport</tspan></text>
      </g>
      <g id="Partner-10" data-name="Partner" transform="translate(82 471)">
        <g id="Rectangle_124-10" data-name="Rectangle 124" transform="translate(141 186)" fill="#fff" stroke="#4d0e0f" stroke-width="3">
          <rect width="147" height="46" rx="10" stroke="none"/>
          <rect x="1.5" y="1.5" width="144" height="43" rx="8.5" fill="none"/>
        </g>
        <text id="Roning" transform="translate(151 195)" fill="#4d0e0f" font-size="20" font-family="Arial-BoldMT, Arial" font-weight="700"><tspan x="30.066" y="18">Roning</tspan></text>
      </g>
      <g id="Partner-11" data-name="Partner" transform="translate(-83 539)">
        <g id="Rectangle_124-11" data-name="Rectangle 124" transform="translate(141 186)" fill="#fff" stroke="#4d0e0f" stroke-width="3">
          <rect width="147" height="46" rx="10" stroke="none"/>
          <rect x="1.5" y="1.5" width="144" height="43" rx="8.5" fill="none"/>
        </g>
        <text id="Bridge" transform="translate(151 195)" fill="#4d0e0f" font-size="20" font-family="Arial-BoldMT, Arial" font-weight="700"><tspan x="32.83" y="18">Bridge</tspan></text>
      </g>
      <g id="Partner-12" data-name="Partner" transform="translate(82 539)">
        <g id="Rectangle_124-12" data-name="Rectangle 124" transform="translate(141 186)" fill="#fff" stroke="#4d0e0f" stroke-width="3">
          <rect width="147" height="46" rx="10" stroke="none"/>
          <rect x="1.5" y="1.5" width="144" height="43" rx="8.5" fill="none"/>
        </g>
        <text id="Debat" transform="translate(151 195)" fill="#4d0e0f" font-size="20" font-family="Arial-BoldMT, Arial" font-weight="700"><tspan x="36.717" y="18">Debat</tspan></text>
      </g>
      <g id="Partner-13" data-name="Partner" transform="translate(-83 607)">
        <g id="Rectangle_124-13" data-name="Rectangle 124" transform="translate(141 186)" fill="#fff" stroke="#4d0e0f" stroke-width="3">
          <rect width="147" height="46" rx="10" stroke="none"/>
          <rect x="1.5" y="1.5" width="144" height="43" rx="8.5" fill="none"/>
        </g>
        <text id="Café_ture" data-name="Café ture" transform="translate(151 195)" fill="#4d0e0f" font-size="20" font-family="Arial-BoldMT, Arial" font-weight="700"><tspan x="21.155" y="18">Café ture</tspan></text>
      </g>
      <g id="Partner-14" data-name="Partner" transform="translate(82 607)">
        <g id="Rectangle_124-14" data-name="Rectangle 124" transform="translate(141 186)" fill="#fff" stroke="#4d0e0f" stroke-width="3">
          <rect width="147" height="46" rx="10" stroke="none"/>
          <rect x="1.5" y="1.5" width="144" height="43" rx="8.5" fill="none"/>
        </g>
        <text id="Læse" transform="translate(151 195)" fill="#4d0e0f" font-size="20" font-family="Arial-BoldMT, Arial" font-weight="700"><tspan x="38.377" y="18">Læse</tspan></text>
      </g>
      <g id="Partner-15" data-name="Partner" transform="translate(-83 675)">
        <g id="Rectangle_124-15" data-name="Rectangle 124" transform="translate(141 186)" fill="#fff" stroke="#4d0e0f" stroke-width="3">
          <rect width="147" height="46" rx="10" stroke="none"/>
          <rect x="1.5" y="1.5" width="144" height="43" rx="8.5" fill="none"/>
        </g>
        <text id="Fiske" transform="translate(151 195)" fill="#4d0e0f" font-size="20" font-family="Arial-BoldMT, Arial" font-weight="700"><tspan x="38.929" y="18">Fiske</tspan></text>
      </g>
      <g id="Partner-16" data-name="Partner" transform="translate(82 675)">
        <g id="Rectangle_124-16" data-name="Rectangle 124" transform="translate(141 186)" fill="#fff" stroke="#4d0e0f" stroke-width="3">
          <rect width="147" height="46" rx="10" stroke="none"/>
          <rect x="1.5" y="1.5" width="144" height="43" rx="8.5" fill="none"/>
        </g>
        <text id="Camping" transform="translate(151 195)" fill="#4d0e0f" font-size="20" font-family="Arial-BoldMT, Arial" font-weight="700"><tspan x="21.722" y="18">Camping</tspan></text>
      </g>
    </g>
  </g>
</svg>
