<svg xmlns="http://www.w3.org/2000/svg" xmlns:xlink="http://www.w3.org/1999/xlink" width="428" height="926" viewBox="0 0 428 926">
  <defs>
    <linearGradient id="linear-gradient" x1="0.5" y1="0.5" x2="0.5" gradientUnits="objectBoundingBox">
      <stop offset="0" stop-color="#bf2a2d"/>
      <stop offset="1" stop-color="#540001"/>
    </linearGradient>
    <clipPath id="clip-Meddeleles_instillinger">
      <rect width="428" height="926"/>
    </clipPath>
  </defs>
  <g id="Meddeleles_instillinger" data-name="Meddeleles instillinger" clip-path="url(#clip-Meddeleles_instillinger)">
    <rect width="428" height="926" fill="#fff"/>
    <g id="Menu" transform="translate(-7.474 1.094)">
      <line id="Line_1" data-name="Line 1" x2="440" transform="translate(1.474 133.406)" fill="none" stroke="#4d0e0f" stroke-width="5"/>
      <rect id="Rectangle_120" data-name="Rectangle 120" width="428" height="132" transform="translate(7.474 -1.094)" fill="url(#linear-gradient)"/>
      <g id="Icon_material-chat" data-name="Icon material-chat" transform="translate(35.156 3.906)" fill="none">
        <path d="M67.967,3H10.219C6.248,3,3.036,5.753,3.036,9.119L3,64.185,17.437,51.948h50.53c3.97,0,7.219-2.753,7.219-6.119V9.119C75.185,5.753,71.937,3,67.967,3ZM17.437,24.415H60.748v6.119H17.437Zm28.874,15.3H17.437V33.593H46.311ZM60.748,21.356H17.437V15.237H60.748Z" stroke="none"/>
        <path d="M 10.218505859375 6 C 7.951400756835938 6 6.036094665527344 7.428104400634766 6.036094665527344 9.120471954345703 L 6.004249572753906 57.70592880249023 L 15.49723815917969 49.65953826904297 L 16.33665084838867 48.94804763793945 L 17.43701553344727 48.94804763793945 L 67.966552734375 48.94804763793945 C 69.15957641601563 48.94804763793945 70.31074523925781 48.55228424072266 71.12484741210938 47.86222076416016 C 71.52080535888672 47.526611328125 72.18505859375 46.81624603271484 72.18505859375 45.82954025268555 L 72.18505859375 9.118507385253906 C 72.18505859375 8.131801605224609 71.52080535888672 7.421436309814453 71.12484741210938 7.085823059082031 C 70.31072998046875 6.395763397216797 69.15957641601563 6 67.966552734375 6 L 10.218505859375 6 M 63.74805068969727 24.35551834106445 L 63.74805068969727 24.41477584838867 L 63.74805068969727 30.53328323364258 L 63.74805068969727 33.53328323364258 L 60.74805068969727 33.53328323364258 L 49.31103897094727 33.53328323364258 L 49.31103897094727 33.592529296875 L 49.31103897094727 39.71103668212891 L 49.31103897094727 42.71103668212891 L 46.31103897094727 42.71103668212891 L 17.43701553344727 42.71103668212891 L 14.43701553344727 42.71103668212891 L 14.43701553344727 39.71103668212891 L 14.43701553344727 33.592529296875 L 14.43701553344727 30.592529296875 L 14.43701553344727 30.53328323364258 L 14.43701553344727 24.41477584838867 L 14.43701553344727 21.41477584838867 L 14.43701553344727 21.35551834106445 L 14.43701553344727 15.23701095581055 L 14.43701553344727 12.23701095581055 L 17.43701553344727 12.23701095581055 L 60.74805068969727 12.23701095581055 L 63.74805068969727 12.23701095581055 L 63.74805068969727 15.23701095581055 L 63.74805068969727 21.35551834106445 L 63.74805068969727 24.35551834106445 M 10.218505859375 3 L 67.966552734375 3 C 71.93673706054688 3 75.18505859375 5.753330230712891 75.18505859375 9.118507385253906 L 75.18505859375 45.82954025268555 C 75.18505859375 49.19472885131836 71.93673706054688 51.94804763793945 67.966552734375 51.94804763793945 L 17.43701553344727 51.94804763793945 L 3 64.18505859375 L 3.036094665527344 9.118507385253906 C 3.036094665527344 5.753330230712891 6.248336791992188 3 10.218505859375 3 Z M 60.74805068969727 21.35551834106445 L 60.74805068969727 15.23701095581055 L 17.43701553344727 15.23701095581055 L 17.43701553344727 21.35551834106445 L 60.74805068969727 21.35551834106445 Z M 60.74805068969727 30.53328323364258 L 60.74805068969727 24.41477584838867 L 17.43701553344727 24.41477584838867 L 17.43701553344727 30.53328323364258 L 60.74805068969727 30.53328323364258 Z M 46.31103897094727 39.71103668212891 L 46.31103897094727 33.592529296875 L 17.43701553344727 33.592529296875 L 17.43701553344727 39.71103668212891 L 46.31103897094727 39.71103668212891 Z" stroke="none" fill="#fff"/>
      </g>
      <path id="Icon_awesome-user-circle" data-name="Icon awesome-user-circle" d="M36.093.562C16.154.562,0,13.829,0,30.2s16.154,29.64,36.093,29.64S72.185,46.576,72.185,30.2,56.031.562,36.093.562Zm0,11.473c7.073,0,12.807,4.709,12.807,10.517S43.166,33.071,36.093,33.071,23.286,28.362,23.286,22.553,29.02,12.036,36.093,12.036Zm0,41.113A30.65,30.65,0,0,1,14.772,45c2.736-4.231,8.092-7.147,14.335-7.147a4.279,4.279,0,0,1,1.033.131,21.895,21.895,0,0,0,11.9,0,4.279,4.279,0,0,1,1.033-.131c6.243,0,11.6,2.916,14.335,7.147A30.65,30.65,0,0,1,36.093,53.149Z" transform="translate(332.608 6.343)" fill="#fff"/>
      <g id="Icon_awesome-home" data-name="Icon awesome-home" transform="translate(185.383 4.652)" fill="none">
        <path d="M35.134,18.127l-23.1,20.741V61.253a2.1,2.1,0,0,0,2,2.185l14.042-.04a2.1,2.1,0,0,0,1.995-2.185V48.141a2.1,2.1,0,0,1,2-2.185H40.1a2.1,2.1,0,0,1,2,2.185V61.2a2.29,2.29,0,0,0,.585,1.55,1.925,1.925,0,0,0,1.42.643l14.037.042a2.1,2.1,0,0,0,2-2.185v-22.4l-23.1-20.726A1.431,1.431,0,0,0,35.134,18.127Zm36.494,14.1L61.153,22.812V3.893a1.576,1.576,0,0,0-1.5-1.639H52.632a1.576,1.576,0,0,0-1.5,1.639V13.81L39.909,3.749a5.637,5.637,0,0,0-7.644,0L.545,32.224a1.742,1.742,0,0,0-.2,2.308l3.2,4.234a1.471,1.471,0,0,0,1.017.59,1.421,1.421,0,0,0,1.1-.368L35.134,12.526a1.431,1.431,0,0,1,1.917,0L66.529,38.989a1.42,1.42,0,0,0,2.118-.219l3.2-4.234a1.742,1.742,0,0,0,.335-1.2,1.686,1.686,0,0,0-.548-1.108Z" stroke="none"/>
        <path d="M 52.63169097900391 2.253517150878906 C 51.80120086669922 2.253517150878906 51.12795257568359 2.987350463867188 51.12795257568359 3.892585754394531 L 51.12795257568359 13.8103141784668 L 39.90880966186523 3.749160766601563 C 38.79859924316406 2.753349304199219 37.44270324707031 2.255443572998047 36.08681106567383 2.255443572998047 C 34.73091506958008 2.255443572998047 33.37502288818359 2.753349304199219 32.26480865478516 3.749160766601563 L 0.5446929931640625 32.22389221191406 C -0.09571075439453125 32.80084609985352 -0.1854934692382813 33.83454895019531 0.3442001342773438 34.53225708007813 L 3.539642333984375 38.76651763916016 C 3.793312072753906 39.10272979736328 4.159255981445313 39.31513977050781 4.556785583496094 39.35690307617188 C 4.604949951171875 39.36196136474609 4.65313720703125 39.36447143554688 4.701118469238281 39.36447143554688 C 5.049110412597656 39.36447143554688 5.388046264648438 39.2327766418457 5.658653259277344 38.98915100097656 L 35.13444519042969 12.52638626098633 C 35.41420364379883 12.28058624267578 35.75363922119141 12.15768432617188 36.09307479858398 12.15768432617188 C 36.43251037597656 12.15768432617188 36.77194595336914 12.28058624267578 37.05170440673828 12.52638626098633 L 66.52873992919922 38.98915100097656 C 66.80921173095703 39.24213409423828 67.14894104003906 39.36549377441406 67.48659515380859 39.36549377441406 C 67.91954040527344 39.36549377441406 68.34912109375 39.16278839111328 68.64650726318359 38.77060699462891 L 71.84194946289063 34.53635025024414 C 72.09605407714844 34.19936370849609 72.2164306640625 33.765869140625 72.17646026611328 33.33185577392578 C 72.13646697998047 32.89783477783203 71.93942260742188 32.49909210205078 71.62892913818359 32.22389221191406 L 71.62891387939453 32.22389221191406 L 61.15287017822266 22.81153869628906 L 61.15287017822266 3.892585754394531 C 61.15287017822266 2.987350463867188 60.47963333129883 2.253517150878906 59.64913940429688 2.253517150878906 L 52.63169097900391 2.253517150878906 M 36.09307479858398 17.75783538818359 C 35.75363922119141 17.75783538818359 35.41420364379883 17.88073348999023 35.13444519042969 18.12652587890625 L 12.0307502746582 38.86758422851563 L 12.0307502746582 61.253173828125 C 12.0307502746582 62.46015167236328 12.92840957641602 63.4385986328125 14.03573989868164 63.4385986328125 L 28.07815170288086 63.39898681640625 C 29.18154907226563 63.39297485351563 30.07311630249023 62.41627883911133 30.07310485839844 61.21356201171875 L 30.07310485839844 48.14062118530273 C 30.07310485839844 46.93364715576172 30.97076416015625 45.9552001953125 32.07809066772461 45.9552001953125 L 40.0980339050293 45.9552001953125 C 41.20535278320313 45.9552001953125 42.10301971435547 46.93364715576172 42.10301971435547 48.14062118530273 L 42.10301971435547 61.20399856567383 C 42.10134887695313 61.78478622436523 42.31185913085938 62.34242248535156 42.68804550170898 62.75374984741211 C 43.06423187255859 63.16506958007813 43.57514953613281 63.39624404907227 44.10799789428711 63.39624404907227 L 58.1453971862793 63.4385986328125 C 59.25271606445313 63.4385986328125 60.15038681030273 62.46015167236328 60.15038681030273 61.253173828125 L 60.15038681030273 38.85256195068359 L 37.05170440673828 18.12652587890625 C 36.77194595336914 17.88073348999023 36.43251037597656 17.75783538818359 36.09307479858398 17.75783538818359 M 52.63169097900391 -0.7464828491210938 L 59.64913940429688 -0.7464828491210938 C 62.13250350952148 -0.7464828491210938 64.15287017822266 1.334598541259766 64.15287017822266 3.892585754394531 L 64.15287017822266 21.47392272949219 L 73.6287841796875 29.98769378662109 C 74.50870513916016 30.77213668823242 75.05368804931641 31.86146545410156 75.16381072998047 33.05662155151367 C 75.272705078125 34.23884582519531 74.94365692138672 35.40578460693359 74.23728942871094 36.34255218505859 L 71.04113006591797 40.57775115966797 L 71.03905487060547 40.58050537109375 L 71.03697204589844 40.58324432373047 C 70.17813110351563 41.71588897705078 68.88405609130859 42.36549377441406 67.48659515380859 42.36549377441406 C 66.39575958251953 42.36549377441406 65.34331512451172 41.9586296081543 64.52256011962891 41.21968078613281 L 63.15038681030273 39.98781967163086 L 63.15038681030273 61.253173828125 C 63.15038681030273 64.11241912841797 60.9051628112793 66.4385986328125 58.1453971862793 66.4385986328125 L 58.140869140625 66.4385986328125 L 58.1363525390625 66.43858337402344 L 44.10105895996094 66.396240234375 C 42.734619140625 66.39422607421875 41.41302490234375 65.80481719970703 40.47429275512695 64.77843475341797 C 39.58735656738281 63.80863189697266 39.10049438476563 62.53830718994141 39.10301971435547 61.2008056640625 L 39.10301971435547 48.9552001953125 L 33.07310485839844 48.9552001953125 L 33.07310485839844 61.21356201171875 C 33.07311630249023 62.54543304443359 32.5872802734375 63.81118774414063 31.70508193969727 64.77761077880859 C 30.77128219604492 65.80057525634766 29.45526885986328 66.39152526855469 28.0944938659668 66.39894104003906 L 28.09054946899414 66.39896392822266 L 28.08660888671875 66.39897155761719 L 14.04419708251953 66.43858337402344 L 14.03997421264648 66.4385986328125 L 14.03573989868164 66.4385986328125 C 11.27597427368164 66.4385986328125 9.030750274658203 64.11241912841797 9.030750274658203 61.253173828125 L 9.030750274658203 39.99338150024414 L 7.662811279296875 41.22148895263672 C 6.845199584960938 41.95757293701172 5.792289733886719 42.36446762084961 4.701118469238281 42.36446762084961 C 4.548881530761719 42.36446762084961 4.394889831542969 42.35639953613281 4.243408203125 42.34049224853516 C 3.02490234375 42.21247863769531 1.895553588867188 41.56839752197266 1.144821166992188 40.57339859008789 L -2.049301147460938 36.34088516235352 C -3.51788330078125 34.4007682800293 -3.261070251464844 31.61465454101563 -1.463340759277344 29.99503326416016 L -1.461341857910156 29.99323272705078 L -1.459342956542969 29.9914436340332 L 30.26077270507813 1.516716003417969 C 31.88681030273438 0.05821990966796875 33.95555114746094 -0.7445526123046875 36.08681106567383 -0.7445526123046875 C 38.21806716918945 -0.7445526123046875 40.28681182861328 0.05821990966796875 41.91194915771484 1.515903472900391 L 48.12795257568359 7.090324401855469 L 48.12795257568359 3.892585754394531 C 48.12795257568359 1.334598541259766 50.1483154296875 -0.7464828491210938 52.63169097900391 -0.7464828491210938 Z" stroke="none" fill="#f6f6f6"/>
      </g>
    </g>
    <g id="Chat_vindue" data-name="Chat vindue">
      <g id="Min_profil" data-name="Min profil" transform="translate(31.381)">
        <rect id="Rectangle_122" data-name="Rectangle 122" width="167" height="37" rx="10" transform="translate(4.619 90)" fill="none"/>
        <text id="Min_profil-2" data-name="Min profil" transform="translate(12.619 98)" fill="#fff" font-size="20" font-family="Arial-BoldMT, Arial" font-weight="700"><tspan x="-44.99" y="18">Min profil</tspan></text>
      </g>
      <g id="Instillinger" transform="translate(220.255)">
        <rect id="Rectangle_122-2" data-name="Rectangle 122" width="167" height="37" rx="10" transform="translate(4.745 90)" fill="#f6f6f6"/>
        <text id="Instillinger-2" data-name="Instillinger" transform="translate(12.745 98)" fill="#4d0e0f" font-size="20" font-family="Arial-BoldMT, Arial" font-weight="700"><tspan x="-50.562" y="18">Instillinger</tspan></text>
      </g>
    </g>
    <g id="knap" transform="translate(-105 -34)">
      <g id="Rectangle_124" data-name="Rectangle 124" transform="translate(141 186)" fill="#fff" stroke="#4d0e0f" stroke-width="3">
        <rect width="356" height="46" rx="10" stroke="none"/>
        <rect x="1.5" y="1.5" width="353" height="43" rx="8.5" fill="none"/>
      </g>
      <text id="Meddeleles_instillinger-2" data-name="Meddeleles instillinger" transform="translate(151 195)" fill="#4d0e0f" font-size="20" font-family="Arial-BoldMT, Arial" font-weight="700"><tspan x="61.749" y="18">Meddeleles instillinger</tspan></text>
    </g>
    <g id="knap-2" data-name="knap" transform="translate(-105 18)">
      <g id="Rectangle_124-2" data-name="Rectangle 124" transform="translate(141 191)" fill="#fff" stroke="#4d0e0f" stroke-width="3">
        <rect width="356" height="301" rx="10" stroke="none"/>
        <rect x="1.5" y="1.5" width="353" height="298" rx="8.5" fill="none"/>
      </g>
      <text id="Push-notifikationer" transform="translate(150 196)" fill="#4d0e0f" font-size="20" font-family="Arial-BoldMT, Arial" font-weight="700"><tspan x="0" y="18">Push-notifikationer</tspan></text>
      <text id="Beskeder_" data-name="Beskeder
" transform="translate(150 223)" fill="#bf2a2d" font-size="15" font-family="Arial-BoldMT, Arial" font-weight="700"><tspan x="0" y="14">Beskeder</tspan></text>
      <text id="Tillad_at_App_navn_må_notificere_om_nye_beskeder_i_app._Ja_Nej_" data-name="Tillad at App navn må notificere om nye beskeder i app.
        Ja                         Nej
" transform="translate(150 243)" fill="#4d0e0f" font-size="20" font-family="ArialMT, Arial"><tspan x="0" y="18">Tillad at App navn må notificere om </tspan><tspan x="0" y="41">nye beskeder i app.</tspan><tspan x="0" y="64" xml:space="preserve">        Ja                         Nej</tspan></text>
      <g id="Icon_feather-check-square" data-name="Icon feather-check-square" transform="translate(160.5 289.765)">
        <path id="Path_23" data-name="Path 23" d="M13.5,13.835l2.851,3.358L25.855,6" transform="translate(1.855)" fill="none" stroke="#000" stroke-linecap="round" stroke-linejoin="round" stroke-width="3"/>
        <path id="Path_24" data-name="Path 24" d="M26.211,14.309v7.629a2.3,2.3,0,0,1-2.412,2.18H6.912A2.3,2.3,0,0,1,4.5,21.938V6.68A2.3,2.3,0,0,1,6.912,4.5H20.18" fill="none" stroke="#000" stroke-linecap="round" stroke-linejoin="round" stroke-width="3"/>
      </g>
      <path id="Icon_material-check-box-outline-blank" data-name="Icon material-check-box-outline-blank" d="M25.132,6.97V24.264H7.079V6.97H25.132m0-2.47H7.079A2.534,2.534,0,0,0,4.5,6.97V24.264a2.534,2.534,0,0,0,2.579,2.47H25.132a2.534,2.534,0,0,0,2.579-2.47V6.97A2.534,2.534,0,0,0,25.132,4.5Z" transform="translate(321.5 287.148)"/>
      <text id="E-mail_" data-name="E-mail
" transform="translate(150 321)" fill="#bf2a2d" font-size="15" font-family="Arial-BoldMT, Arial" font-weight="700"><tspan x="0" y="14">E-mail</tspan></text>
      <text id="Tillad_at_App_navn_må_sende_E-mail_beskeder_omkring_opdateringer_i_app._Ja_Nej_" data-name="Tillad at App navn må sende E-mail beskeder omkring opdateringer i app.
        Ja                         Nej
" transform="translate(150 341)" fill="#4d0e0f" font-size="20" font-family="ArialMT, Arial"><tspan x="0" y="18">Tillad at App navn må sende E-mail </tspan><tspan x="0" y="41">beskeder omkring opdateringer i app.</tspan><tspan x="0" y="64" xml:space="preserve">        Ja                         Nej</tspan></text>
      <g id="Icon_feather-check-square-2" data-name="Icon feather-check-square" transform="translate(321.5 383.883)">
        <path id="Path_23-2" data-name="Path 23" d="M13.5,13.835l2.851,3.358L25.855,6" transform="translate(1.855)" fill="none" stroke="#000" stroke-linecap="round" stroke-linejoin="round" stroke-width="3"/>
        <path id="Path_24-2" data-name="Path 24" d="M26.211,14.309v7.629a2.3,2.3,0,0,1-2.412,2.18H6.912A2.3,2.3,0,0,1,4.5,21.938V6.68A2.3,2.3,0,0,1,6.912,4.5H20.18" fill="none" stroke="#000" stroke-linecap="round" stroke-linejoin="round" stroke-width="3"/>
      </g>
      <path id="Icon_material-check-box-outline-blank-2" data-name="Icon material-check-box-outline-blank" d="M25.132,6.97V24.264H7.079V6.97H25.132m0-2.47H7.079A2.534,2.534,0,0,0,4.5,6.97V24.264a2.534,2.534,0,0,0,2.579,2.47H25.132a2.534,2.534,0,0,0,2.579-2.47V6.97A2.534,2.534,0,0,0,25.132,4.5Z" transform="translate(160.5 381.265)"/>
      <text id="Sæt_notifikationer_på_pause_" data-name="Sæt notifikationer på pause
" transform="translate(150 411)" fill="#bf2a2d" font-size="15" font-family="Arial-BoldMT, Arial" font-weight="700"><tspan x="0" y="14">Sæt notifikationer på pause</tspan></text>
      <text id="Sæt_alle_app_notifikationer_på_pause_" data-name="Sæt alle app notifikationer på pause

" transform="translate(150 427)" fill="#4d0e0f" font-size="20" font-family="ArialMT, Arial"><tspan x="0" y="18">Sæt alle app notifikationer på pause</tspan></text>
      <g id="Rectangle_140" data-name="Rectangle 140" transform="translate(165 456)" fill="rgba(77,14,15,0.39)" stroke="#4d0e0f" stroke-width="1">
        <rect width="45" height="23" rx="10" stroke="none"/>
        <rect x="0.5" y="0.5" width="44" height="22" rx="9.5" fill="none"/>
      </g>
      <g id="Ellipse_8" data-name="Ellipse 8" transform="translate(168 459)" fill="#4d0e0f" stroke="#4d0e0f" stroke-width="3">
        <ellipse cx="8.5" cy="8" rx="8.5" ry="8" stroke="none"/>
        <ellipse cx="8.5" cy="8" rx="7" ry="6.5" fill="none"/>
      </g>
    </g>
    <g id="Backward_arrow" data-name="Backward arrow" transform="translate(10 86.211)">
      <path id="Path_10" data-name="Path 10" d="M20.395,0,16.687,3.708,30.724,17.746H0v5.3H30.724L16.687,37.081l3.708,3.708L40.789,20.395Z" transform="translate(40.789 40.789) rotate(180)" fill="#fff"/>
    </g>
    <g id="knap-3" data-name="knap" transform="translate(-105 18)">
      <g id="Rectangle_124-3" data-name="Rectangle 124" transform="translate(141 191)" fill="#fff" stroke="#4d0e0f" stroke-width="3">
        <rect width="356" height="301" rx="10" stroke="none"/>
        <rect x="1.5" y="1.5" width="353" height="298" rx="8.5" fill="none"/>
      </g>
      <text id="Push-notifikationer-2" data-name="Push-notifikationer" transform="translate(150 196)" fill="#4d0e0f" font-size="20" font-family="Arial-BoldMT, Arial" font-weight="700"><tspan x="0" y="18">Push-notifikationer</tspan></text>
      <text id="Beskeder_2" data-name="Beskeder
" transform="translate(150 223)" fill="#bf2a2d" font-size="15" font-family="Arial-BoldMT, Arial" font-weight="700"><tspan x="0" y="14">Beskeder</tspan></text>
      <text id="Tillad_at_App_navn_må_notificere_om_nye_beskeder_i_app._Ja_Nej_2" data-name="Tillad at App navn må notificere om nye beskeder i app.
        Ja                         Nej
" transform="translate(150 243)" fill="#4d0e0f" font-size="20" font-family="ArialMT, Arial"><tspan x="0" y="18">Tillad at App navn må notificere om </tspan><tspan x="0" y="41">nye beskeder i app.</tspan><tspan x="0" y="64" xml:space="preserve">        Ja                         Nej</tspan></text>
      <g id="Icon_feather-check-square-3" data-name="Icon feather-check-square" transform="translate(160.5 289.765)">
        <path id="Path_23-3" data-name="Path 23" d="M13.5,13.835l2.851,3.358L25.855,6" transform="translate(1.855)" fill="none" stroke="#000" stroke-linecap="round" stroke-linejoin="round" stroke-width="3"/>
        <path id="Path_24-3" data-name="Path 24" d="M26.211,14.309v7.629a2.3,2.3,0,0,1-2.412,2.18H6.912A2.3,2.3,0,0,1,4.5,21.938V6.68A2.3,2.3,0,0,1,6.912,4.5H20.18" fill="none" stroke="#000" stroke-linecap="round" stroke-linejoin="round" stroke-width="3"/>
      </g>
      <path id="Icon_material-check-box-outline-blank-3" data-name="Icon material-check-box-outline-blank" d="M25.132,6.97V24.264H7.079V6.97H25.132m0-2.47H7.079A2.534,2.534,0,0,0,4.5,6.97V24.264a2.534,2.534,0,0,0,2.579,2.47H25.132a2.534,2.534,0,0,0,2.579-2.47V6.97A2.534,2.534,0,0,0,25.132,4.5Z" transform="translate(321.5 287.148)"/>
      <text id="E-mail_2" data-name="E-mail
" transform="translate(150 321)" fill="#bf2a2d" font-size="15" font-family="Arial-BoldMT, Arial" font-weight="700"><tspan x="0" y="14">E-mail</tspan></text>
      <text id="Tillad_at_App_navn_må_sende_E-mail_beskeder_omkring_opdateringer_i_app._Ja_Nej_2" data-name="Tillad at App navn må sende E-mail beskeder omkring opdateringer i app.
        Ja                         Nej
" transform="translate(150 341)" fill="#4d0e0f" font-size="20" font-family="ArialMT, Arial"><tspan x="0" y="18">Tillad at App navn må sende E-mail </tspan><tspan x="0" y="41">beskeder omkring opdateringer i app.</tspan><tspan x="0" y="64" xml:space="preserve">        Ja                         Nej</tspan></text>
      <g id="Icon_feather-check-square-4" data-name="Icon feather-check-square" transform="translate(321.5 383.883)">
        <path id="Path_23-4" data-name="Path 23" d="M13.5,13.835l2.851,3.358L25.855,6" transform="translate(1.855)" fill="none" stroke="#000" stroke-linecap="round" stroke-linejoin="round" stroke-width="3"/>
        <path id="Path_24-4" data-name="Path 24" d="M26.211,14.309v7.629a2.3,2.3,0,0,1-2.412,2.18H6.912A2.3,2.3,0,0,1,4.5,21.938V6.68A2.3,2.3,0,0,1,6.912,4.5H20.18" fill="none" stroke="#000" stroke-linecap="round" stroke-linejoin="round" stroke-width="3"/>
      </g>
      <path id="Icon_material-check-box-outline-blank-4" data-name="Icon material-check-box-outline-blank" d="M25.132,6.97V24.264H7.079V6.97H25.132m0-2.47H7.079A2.534,2.534,0,0,0,4.5,6.97V24.264a2.534,2.534,0,0,0,2.579,2.47H25.132a2.534,2.534,0,0,0,2.579-2.47V6.97A2.534,2.534,0,0,0,25.132,4.5Z" transform="translate(160.5 381.265)"/>
      <text id="Sæt_notifikationer_på_pause_2" data-name="Sæt notifikationer på pause
" transform="translate(150 411)" fill="#bf2a2d" font-size="15" font-family="Arial-BoldMT, Arial" font-weight="700"><tspan x="0" y="14">Sæt notifikationer på pause</tspan></text>
      <text id="Sæt_alle_app_notifikationer_på_pause_2" data-name="Sæt alle app notifikationer på pause

" transform="translate(150 427)" fill="#4d0e0f" font-size="20" font-family="ArialMT, Arial"><tspan x="0" y="18">Sæt alle app notifikationer på pause</tspan></text>
      <g id="Rectangle_140-2" data-name="Rectangle 140" transform="translate(165 456)" fill="rgba(77,14,15,0.39)" stroke="#4d0e0f" stroke-width="1">
        <rect width="45" height="23" rx="10" stroke="none"/>
        <rect x="0.5" y="0.5" width="44" height="22" rx="9.5" fill="none"/>
      </g>
      <g id="Ellipse_8-2" data-name="Ellipse 8" transform="translate(168 459)" fill="#4d0e0f" stroke="#4d0e0f" stroke-width="3">
        <ellipse cx="8.5" cy="8" rx="8.5" ry="8" stroke="none"/>
        <ellipse cx="8.5" cy="8" rx="7" ry="6.5" fill="none"/>
      </g>
      <text id="Notifikationer_på_pause_" data-name="Notifikationer på pause
" transform="translate(221 463)" fill="#4d0e0f" font-size="10" font-family="ArialMT, Arial"><tspan x="0" y="9">Notifikationer på pause</tspan></text>
    </g>
  </g>
</svg>
