<svg xmlns="http://www.w3.org/2000/svg" xmlns:xlink="http://www.w3.org/1999/xlink" width="428" height="1048" viewBox="0 0 428 1048">
  <defs>
    <linearGradient id="linear-gradient" x1="0.5" y1="0.5" x2="0.5" gradientUnits="objectBoundingBox">
      <stop offset="0" stop-color="#bf2a2d"/>
      <stop offset="1" stop-color="#540001"/>
    </linearGradient>
    <linearGradient id="linear-gradient-3" x1="0.5" y1="0.5" x2="0.5" gradientUnits="objectBoundingBox">
      <stop offset="0" stop-color="#540001"/>
      <stop offset="1" stop-color="#2b0000"/>
    </linearGradient>
    <clipPath id="clip-Min_profil">
      <rect width="428" height="1048"/>
    </clipPath>
  </defs>
  <g id="Min_profil" data-name="Min profil" clip-path="url(#clip-Min_profil)">
    <rect width="428" height="1048" fill="#fff"/>
    <g id="Menu" transform="translate(-7.474 1.094)">
      <line id="Line_1" data-name="Line 1" x2="440" transform="translate(1.474 133.406)" fill="none" stroke="#4d0e0f" stroke-width="5"/>
      <rect id="Rectangle_120" data-name="Rectangle 120" width="428" height="132" transform="translate(7.474 -1.094)" fill="url(#linear-gradient)"/>
      <g id="Icon_material-chat" data-name="Icon material-chat" transform="translate(35.156 3.906)" fill="none">
        <path d="M67.967,3H10.219C6.248,3,3.036,5.753,3.036,9.119L3,64.185,17.437,51.948h50.53c3.97,0,7.219-2.753,7.219-6.119V9.119C75.185,5.753,71.937,3,67.967,3ZM17.437,24.415H60.748v6.119H17.437Zm28.874,15.3H17.437V33.593H46.311ZM60.748,21.356H17.437V15.237H60.748Z" stroke="none"/>
        <path d="M 10.218505859375 6 C 7.951400756835938 6 6.036094665527344 7.428104400634766 6.036094665527344 9.120471954345703 L 6.004249572753906 57.70592880249023 L 15.49723815917969 49.65953826904297 L 16.33665084838867 48.94804763793945 L 17.43701553344727 48.94804763793945 L 67.966552734375 48.94804763793945 C 69.15957641601563 48.94804763793945 70.31074523925781 48.55228424072266 71.12484741210938 47.86222076416016 C 71.52080535888672 47.526611328125 72.18505859375 46.81624603271484 72.18505859375 45.82954025268555 L 72.18505859375 9.118507385253906 C 72.18505859375 8.131801605224609 71.52080535888672 7.421436309814453 71.12484741210938 7.085823059082031 C 70.31072998046875 6.395763397216797 69.15957641601563 6 67.966552734375 6 L 10.218505859375 6 M 63.74805068969727 24.35551834106445 L 63.74805068969727 24.41477584838867 L 63.74805068969727 30.53328323364258 L 63.74805068969727 33.53328323364258 L 60.74805068969727 33.53328323364258 L 49.31103897094727 33.53328323364258 L 49.31103897094727 33.592529296875 L 49.31103897094727 39.71103668212891 L 49.31103897094727 42.71103668212891 L 46.31103897094727 42.71103668212891 L 17.43701553344727 42.71103668212891 L 14.43701553344727 42.71103668212891 L 14.43701553344727 39.71103668212891 L 14.43701553344727 33.592529296875 L 14.43701553344727 30.592529296875 L 14.43701553344727 30.53328323364258 L 14.43701553344727 24.41477584838867 L 14.43701553344727 21.41477584838867 L 14.43701553344727 21.35551834106445 L 14.43701553344727 15.23701095581055 L 14.43701553344727 12.23701095581055 L 17.43701553344727 12.23701095581055 L 60.74805068969727 12.23701095581055 L 63.74805068969727 12.23701095581055 L 63.74805068969727 15.23701095581055 L 63.74805068969727 21.35551834106445 L 63.74805068969727 24.35551834106445 M 10.218505859375 3 L 67.966552734375 3 C 71.93673706054688 3 75.18505859375 5.753330230712891 75.18505859375 9.118507385253906 L 75.18505859375 45.82954025268555 C 75.18505859375 49.19472885131836 71.93673706054688 51.94804763793945 67.966552734375 51.94804763793945 L 17.43701553344727 51.94804763793945 L 3 64.18505859375 L 3.036094665527344 9.118507385253906 C 3.036094665527344 5.753330230712891 6.248336791992188 3 10.218505859375 3 Z M 60.74805068969727 21.35551834106445 L 60.74805068969727 15.23701095581055 L 17.43701553344727 15.23701095581055 L 17.43701553344727 21.35551834106445 L 60.74805068969727 21.35551834106445 Z M 60.74805068969727 30.53328323364258 L 60.74805068969727 24.41477584838867 L 17.43701553344727 24.41477584838867 L 17.43701553344727 30.53328323364258 L 60.74805068969727 30.53328323364258 Z M 46.31103897094727 39.71103668212891 L 46.31103897094727 33.592529296875 L 17.43701553344727 33.592529296875 L 17.43701553344727 39.71103668212891 L 46.31103897094727 39.71103668212891 Z" stroke="none" fill="#fff"/>
      </g>
      <path id="Icon_awesome-user-circle" data-name="Icon awesome-user-circle" d="M36.093.562C16.154.562,0,13.829,0,30.2s16.154,29.64,36.093,29.64S72.185,46.576,72.185,30.2,56.031.562,36.093.562Zm0,11.473c7.073,0,12.807,4.709,12.807,10.517S43.166,33.071,36.093,33.071,23.286,28.362,23.286,22.553,29.02,12.036,36.093,12.036Zm0,41.113A30.65,30.65,0,0,1,14.772,45c2.736-4.231,8.092-7.147,14.335-7.147a4.279,4.279,0,0,1,1.033.131,21.895,21.895,0,0,0,11.9,0,4.279,4.279,0,0,1,1.033-.131c6.243,0,11.6,2.916,14.335,7.147A30.65,30.65,0,0,1,36.093,53.149Z" transform="translate(332.608 6.343)" fill="#fff"/>
      <g id="Icon_awesome-home" data-name="Icon awesome-home" transform="translate(185.383 4.652)" fill="none">
        <path d="M35.134,18.127l-23.1,20.741V61.253a2.1,2.1,0,0,0,2,2.185l14.042-.04a2.1,2.1,0,0,0,1.995-2.185V48.141a2.1,2.1,0,0,1,2-2.185H40.1a2.1,2.1,0,0,1,2,2.185V61.2a2.29,2.29,0,0,0,.585,1.55,1.925,1.925,0,0,0,1.42.643l14.037.042a2.1,2.1,0,0,0,2-2.185v-22.4l-23.1-20.726A1.431,1.431,0,0,0,35.134,18.127Zm36.494,14.1L61.153,22.812V3.893a1.576,1.576,0,0,0-1.5-1.639H52.632a1.576,1.576,0,0,0-1.5,1.639V13.81L39.909,3.749a5.637,5.637,0,0,0-7.644,0L.545,32.224a1.742,1.742,0,0,0-.2,2.308l3.2,4.234a1.471,1.471,0,0,0,1.017.59,1.421,1.421,0,0,0,1.1-.368L35.134,12.526a1.431,1.431,0,0,1,1.917,0L66.529,38.989a1.42,1.42,0,0,0,2.118-.219l3.2-4.234a1.742,1.742,0,0,0,.335-1.2,1.686,1.686,0,0,0-.548-1.108Z" stroke="none"/>
        <path d="M 52.63169097900391 2.253517150878906 C 51.80120086669922 2.253517150878906 51.12795257568359 2.987350463867188 51.12795257568359 3.892585754394531 L 51.12795257568359 13.8103141784668 L 39.90880966186523 3.749160766601563 C 38.79859924316406 2.753349304199219 37.44270324707031 2.255443572998047 36.08681106567383 2.255443572998047 C 34.73091506958008 2.255443572998047 33.37502288818359 2.753349304199219 32.26480865478516 3.749160766601563 L 0.5446929931640625 32.22389221191406 C -0.09571075439453125 32.80084609985352 -0.1854934692382813 33.83454895019531 0.3442001342773438 34.53225708007813 L 3.539642333984375 38.76651763916016 C 3.793312072753906 39.10272979736328 4.159255981445313 39.31513977050781 4.556785583496094 39.35690307617188 C 4.604949951171875 39.36196136474609 4.65313720703125 39.36447143554688 4.701118469238281 39.36447143554688 C 5.049110412597656 39.36447143554688 5.388046264648438 39.2327766418457 5.658653259277344 38.98915100097656 L 35.13444519042969 12.52638626098633 C 35.41420364379883 12.28058624267578 35.75363922119141 12.15768432617188 36.09307479858398 12.15768432617188 C 36.43251037597656 12.15768432617188 36.77194595336914 12.28058624267578 37.05170440673828 12.52638626098633 L 66.52873992919922 38.98915100097656 C 66.80921173095703 39.24213409423828 67.14894104003906 39.36549377441406 67.48659515380859 39.36549377441406 C 67.91954040527344 39.36549377441406 68.34912109375 39.16278839111328 68.64650726318359 38.77060699462891 L 71.84194946289063 34.53635025024414 C 72.09605407714844 34.19936370849609 72.2164306640625 33.765869140625 72.17646026611328 33.33185577392578 C 72.13646697998047 32.89783477783203 71.93942260742188 32.49909210205078 71.62892913818359 32.22389221191406 L 71.62891387939453 32.22389221191406 L 61.15287017822266 22.81153869628906 L 61.15287017822266 3.892585754394531 C 61.15287017822266 2.987350463867188 60.47963333129883 2.253517150878906 59.64913940429688 2.253517150878906 L 52.63169097900391 2.253517150878906 M 36.09307479858398 17.75783538818359 C 35.75363922119141 17.75783538818359 35.41420364379883 17.88073348999023 35.13444519042969 18.12652587890625 L 12.0307502746582 38.86758422851563 L 12.0307502746582 61.253173828125 C 12.0307502746582 62.46015167236328 12.92840957641602 63.4385986328125 14.03573989868164 63.4385986328125 L 28.07815170288086 63.39898681640625 C 29.18154907226563 63.39297485351563 30.07311630249023 62.41627883911133 30.07310485839844 61.21356201171875 L 30.07310485839844 48.14062118530273 C 30.07310485839844 46.93364715576172 30.97076416015625 45.9552001953125 32.07809066772461 45.9552001953125 L 40.0980339050293 45.9552001953125 C 41.20535278320313 45.9552001953125 42.10301971435547 46.93364715576172 42.10301971435547 48.14062118530273 L 42.10301971435547 61.20399856567383 C 42.10134887695313 61.78478622436523 42.31185913085938 62.34242248535156 42.68804550170898 62.75374984741211 C 43.06423187255859 63.16506958007813 43.57514953613281 63.39624404907227 44.10799789428711 63.39624404907227 L 58.1453971862793 63.4385986328125 C 59.25271606445313 63.4385986328125 60.15038681030273 62.46015167236328 60.15038681030273 61.253173828125 L 60.15038681030273 38.85256195068359 L 37.05170440673828 18.12652587890625 C 36.77194595336914 17.88073348999023 36.43251037597656 17.75783538818359 36.09307479858398 17.75783538818359 M 52.63169097900391 -0.7464828491210938 L 59.64913940429688 -0.7464828491210938 C 62.13250350952148 -0.7464828491210938 64.15287017822266 1.334598541259766 64.15287017822266 3.892585754394531 L 64.15287017822266 21.47392272949219 L 73.6287841796875 29.98769378662109 C 74.50870513916016 30.77213668823242 75.05368804931641 31.86146545410156 75.16381072998047 33.05662155151367 C 75.272705078125 34.23884582519531 74.94365692138672 35.40578460693359 74.23728942871094 36.34255218505859 L 71.04113006591797 40.57775115966797 L 71.03905487060547 40.58050537109375 L 71.03697204589844 40.58324432373047 C 70.17813110351563 41.71588897705078 68.88405609130859 42.36549377441406 67.48659515380859 42.36549377441406 C 66.39575958251953 42.36549377441406 65.34331512451172 41.9586296081543 64.52256011962891 41.21968078613281 L 63.15038681030273 39.98781967163086 L 63.15038681030273 61.253173828125 C 63.15038681030273 64.11241912841797 60.9051628112793 66.4385986328125 58.1453971862793 66.4385986328125 L 58.140869140625 66.4385986328125 L 58.1363525390625 66.43858337402344 L 44.10105895996094 66.396240234375 C 42.734619140625 66.39422607421875 41.41302490234375 65.80481719970703 40.47429275512695 64.77843475341797 C 39.58735656738281 63.80863189697266 39.10049438476563 62.53830718994141 39.10301971435547 61.2008056640625 L 39.10301971435547 48.9552001953125 L 33.07310485839844 48.9552001953125 L 33.07310485839844 61.21356201171875 C 33.07311630249023 62.54543304443359 32.5872802734375 63.81118774414063 31.70508193969727 64.77761077880859 C 30.77128219604492 65.80057525634766 29.45526885986328 66.39152526855469 28.0944938659668 66.39894104003906 L 28.09054946899414 66.39896392822266 L 28.08660888671875 66.39897155761719 L 14.04419708251953 66.43858337402344 L 14.03997421264648 66.4385986328125 L 14.03573989868164 66.4385986328125 C 11.27597427368164 66.4385986328125 9.030750274658203 64.11241912841797 9.030750274658203 61.253173828125 L 9.030750274658203 39.99338150024414 L 7.662811279296875 41.22148895263672 C 6.845199584960938 41.95757293701172 5.792289733886719 42.36446762084961 4.701118469238281 42.36446762084961 C 4.548881530761719 42.36446762084961 4.394889831542969 42.35639953613281 4.243408203125 42.34049224853516 C 3.02490234375 42.21247863769531 1.895553588867188 41.56839752197266 1.144821166992188 40.57339859008789 L -2.049301147460938 36.34088516235352 C -3.51788330078125 34.4007682800293 -3.261070251464844 31.61465454101563 -1.463340759277344 29.99503326416016 L -1.461341857910156 29.99323272705078 L -1.459342956542969 29.9914436340332 L 30.26077270507813 1.516716003417969 C 31.88681030273438 0.05821990966796875 33.95555114746094 -0.7445526123046875 36.08681106567383 -0.7445526123046875 C 38.21806716918945 -0.7445526123046875 40.28681182861328 0.05821990966796875 41.91194915771484 1.515903472900391 L 48.12795257568359 7.090324401855469 L 48.12795257568359 3.892585754394531 C 48.12795257568359 1.334598541259766 50.1483154296875 -0.7464828491210938 52.63169097900391 -0.7464828491210938 Z" stroke="none" fill="#f6f6f6"/>
      </g>
    </g>
    <g id="Chat_vindue" data-name="Chat vindue">
      <g id="Min_profil-2" data-name="Min profil" transform="translate(31.381)">
        <rect id="Rectangle_122" data-name="Rectangle 122" width="167" height="37" rx="10" transform="translate(4.619 90)" fill="#f6f6f6"/>
        <text id="Min_profil-3" data-name="Min profil" transform="translate(12.619 98)" fill="#4d0e0f" font-size="20" font-family="Arial-BoldMT, Arial" font-weight="700"><tspan x="-44.99" y="18">Min profil</tspan></text>
      </g>
      <g id="Instillinger" transform="translate(220.255)">
        <rect id="Rectangle_122-2" data-name="Rectangle 122" width="167" height="37" rx="10" transform="translate(4.745 90)" fill="none"/>
        <text id="Instillinger-2" data-name="Instillinger" transform="translate(12.745 98)" fill="#fff" font-size="20" font-family="Arial-BoldMT, Arial" font-weight="700"><tspan x="-50.562" y="18">Instillinger</tspan></text>
      </g>
    </g>
    <g id="Person" transform="translate(0 20)">
      <g id="Interesser" transform="translate(0 151)">
        <g id="Partner" transform="translate(-84 572)">
          <g id="Rectangle_124" data-name="Rectangle 124" transform="translate(141 186)" fill="#fff" stroke="#4d0e0f" stroke-width="3">
            <rect width="147" height="46" rx="10" stroke="none"/>
            <rect x="1.5" y="1.5" width="144" height="43" rx="8.5" fill="none"/>
          </g>
          <text id="Mad" transform="translate(151 195)" fill="#4d0e0f" font-size="20" font-family="Arial-BoldMT, Arial" font-weight="700"><tspan x="44.5" y="18">Mad</tspan></text>
        </g>
        <g id="Partner-2" data-name="Partner" transform="translate(84 572)">
          <g id="Rectangle_124-2" data-name="Rectangle 124" transform="translate(141 186)" fill="#fff" stroke="#4d0e0f" stroke-width="3">
            <rect width="147" height="46" rx="10" stroke="none"/>
            <rect x="1.5" y="1.5" width="144" height="43" rx="8.5" fill="none"/>
          </g>
          <text id="Musik" transform="translate(151 195)" fill="#4d0e0f" font-size="20" font-family="Arial-BoldMT, Arial" font-weight="700"><tspan x="36.16" y="18">Musik</tspan></text>
        </g>
        <g id="Partner-3" data-name="Partner" transform="translate(-84 629)">
          <g id="Rectangle_124-3" data-name="Rectangle 124" transform="translate(141 186)" fill="#fff" stroke="#4d0e0f" stroke-width="3">
            <rect width="147" height="46" rx="10" stroke="none"/>
            <rect x="1.5" y="1.5" width="144" height="43" rx="8.5" fill="none"/>
          </g>
          <text id="Café_ture" data-name="Café ture" transform="translate(151 195)" fill="#4d0e0f" font-size="20" font-family="Arial-BoldMT, Arial" font-weight="700"><tspan x="21.155" y="18">Café ture</tspan></text>
        </g>
        <g id="Partner-4" data-name="Partner" transform="translate(84 629)">
          <g id="Rectangle_124-4" data-name="Rectangle 124" transform="translate(141 186)" fill="#fff" stroke="#4d0e0f" stroke-width="3">
            <rect width="147" height="46" rx="10" stroke="none"/>
            <rect x="1.5" y="1.5" width="144" height="43" rx="8.5" fill="none"/>
          </g>
          <text id="Natur" transform="translate(151 195)" fill="#4d0e0f" font-size="20" font-family="Arial-BoldMT, Arial" font-weight="700"><tspan x="38.387" y="18">Natur</tspan></text>
        </g>
        <g id="Partner-5" data-name="Partner" transform="translate(0 515)">
          <rect id="Rectangle_124-5" data-name="Rectangle 124" width="147" height="46" rx="10" transform="translate(141 186)" fill="url(#linear-gradient)"/>
          <text id="Interesser-2" data-name="Interesser" transform="translate(151 195)" fill="#f6f6f6" font-size="20" font-family="Arial-BoldMT, Arial" font-weight="700"><tspan x="16.692" y="18">Interesser</tspan></text>
        </g>
      </g>
      <g id="Bio_boks" data-name="Bio boks" transform="translate(-31 -8)">
        <g id="Rectangle_124-6" data-name="Rectangle 124" transform="translate(67 543)" fill="#fff" stroke="#540001" stroke-width="3">
          <rect width="356" height="187" rx="10" stroke="none"/>
          <rect x="1.5" y="1.5" width="353" height="184" rx="8.5" fill="none"/>
        </g>
        <text id="Vi_kan_er_studerende_der_gerne_vil_lave_en_app_for_de_ældre_så_de_enten_kan_finde_deres_nye_store_kærlighed_eller_bare_nogle_de_få_selskab_af._" data-name="Vi kan er studerende, der gerne vil lave en app for de ældre, så de enten kan finde deres nye store kærlighed, eller bare nogle de få selskab af. " transform="translate(70 551)" fill="#540001" font-size="20" font-family="Arial-BoldMT, Arial" font-weight="700"><tspan x="11.787" y="18">Vi kan er studerende, der gerne vil </tspan><tspan x="28.838" y="41">lave en app for de ældre, så de </tspan><tspan x="24.951" y="64">enten kan finde deres nye store </tspan><tspan x="21.621" y="87">kærlighed, eller bare nogle de få </tspan><tspan x="123.857" y="110">selskab af. </tspan></text>
      </g>
      <g id="Min_Bio" data-name="Min Bio" transform="translate(0 -30)">
        <rect id="Rectangle_123" data-name="Rectangle 123" width="227" height="37" rx="10" transform="translate(101 519)" fill="url(#linear-gradient-3)"/>
        <text id="Min_biografi" data-name="Min biografi" transform="translate(122 527)" fill="#fff" font-size="20" font-family="Arial-BoldMT, Arial" font-weight="700"><tspan x="-56.66" y="18">Min biografi</tspan></text>
      </g>
      <g id="Min_Bio-2" data-name="Min Bio" transform="translate(-65 -76)">
        <rect id="Rectangle_123-2" data-name="Rectangle 123" width="356" height="37" rx="10" transform="translate(101 519)" fill="url(#linear-gradient)"/>
        <text id="Vores_Fake_Profil" data-name="Vores Fake Profil" transform="translate(122 527)" fill="#fff" font-size="20" font-family="Arial-BoldMT, Arial" font-weight="700"><tspan x="-80.957" y="18">Vores Fake Profil</tspan></text>
      </g>
      <g id="User_icon" data-name="User icon" transform="translate(-1 15)">
        <g id="Billed" transform="translate(1 -44)">
          <g id="Ellipse_1" data-name="Ellipse 1" transform="translate(67 173)" fill="#ec9ea0" stroke="#707070" stroke-width="1">
            <ellipse cx="147" cy="141.5" rx="147" ry="141.5" stroke="none"/>
            <ellipse cx="147" cy="141.5" rx="146.5" ry="141" fill="none"/>
          </g>
          <path id="Path_20" data-name="Path 20" d="M1093.5,1326.885l-22.115,3.159-20.14,12.637-15.006,13.032-1.974,8.688,16.981,16.981,20.14,13.822,22.115,7.5,24.879,3.159,26.854-3.159,20.14-7.5,24.879-13.822,19.35-16.981-19.35-23.694-24.879-10.662-20.14-3.159-18.955,3.159h-12.242Z" transform="translate(-906 -982)" fill="#f6f6f6"/>
          <path id="Path_21" data-name="Path 21" d="M1116.4,1209.6l-20.535,7.5-21.72,15.4-4.739,17.376-1.974,19.35,6.713,19.35,21.72,20.14,22.9,5.529,22.115-3.159,24.089-18.166,10.662-26.854-4.344-20.93-11.057-18.956-17.376-12.242Z" transform="translate(-906 -982)" fill="#f6f6f6"/>
          <g id="Icon_awesome-user-circle-2" data-name="Icon awesome-user-circle" transform="translate(75.811 179.379)" fill="rgba(77,14,15,0.55)">
            <path d="M 138.0670776367188 263.7789611816406 C 129.0234222412109 263.7789611816406 119.9876556396484 262.8947448730469 111.2107696533203 261.1509399414063 C 102.6607284545898 259.4521789550781 94.25157928466797 256.9175720214844 86.21696472167969 253.6175231933594 C 78.329345703125 250.3778381347656 70.72234344482422 246.3681030273438 63.60723114013672 241.6996459960938 C 56.56107711791992 237.0764465332031 49.93588638305664 231.767333984375 43.91569137573242 225.9197540283203 C 37.89799880981445 220.0746002197266 32.4354248046875 213.6434783935547 27.67973136901855 206.8050994873047 C 22.88126945495605 199.9052124023438 18.76046180725098 192.5297546386719 15.43180847167969 184.8835296630859 C 12.04323101043701 177.0997161865234 9.44084644317627 168.9541320800781 7.696962356567383 160.6730651855469 C 5.907385349273682 152.1750183105469 5.000000476837158 143.4265594482422 5.000000476837158 134.6707153320313 C 5.000000476837158 125.9148712158203 5.907385349273682 117.1664047241211 7.696962356567383 108.6683654785156 C 9.44084644317627 100.3872909545898 12.04323101043701 92.24171447753906 15.43180847167969 84.45790863037109 C 18.76046180725098 76.81171417236328 22.88126945495605 69.43621826171875 27.67973136901855 62.53636932373047 C 32.4354248046875 55.69794464111328 37.89799880981445 49.26686859130859 43.91569137573242 43.42171478271484 C 49.93588638305664 37.57413864135742 56.56107711791992 32.26498413085938 63.60723114013672 27.64179229736328 C 70.72234344482422 22.97336959838867 78.329345703125 18.96360015869141 86.21696472167969 15.7239465713501 C 94.25157928466797 12.42386913299561 102.6607284545898 9.88929271697998 111.2107696533203 8.190523147583008 C 119.9876556396484 6.446715354919434 129.0234222412109 5.562522888183594 138.0670776367188 5.562522888183594 C 147.1107330322266 5.562522888183594 156.1464996337891 6.446715354919434 164.9233856201172 8.190523147583008 C 173.4734191894531 9.88929271697998 181.8825836181641 12.42386913299561 189.9171905517578 15.7239465713501 C 197.8048095703125 18.96360015869141 205.4118041992188 22.97336959838867 212.5269165039063 27.64179229736328 C 219.5730743408203 32.26498413085938 226.1982727050781 37.57413864135742 232.2184600830078 43.42171478271484 C 238.2361602783203 49.26686859130859 243.69873046875 55.69794464111328 248.4544219970703 62.53636932373047 C 253.2528839111328 69.43621826171875 257.3736877441406 76.81171417236328 260.7023620605469 84.45790863037109 C 264.0909118652344 92.24171447753906 266.6932983398438 100.3872909545898 268.4371948242188 108.6683654785156 C 270.2267761230469 117.1664047241211 271.1341552734375 125.9148712158203 271.1341552734375 134.6707153320313 C 271.1341552734375 143.4265594482422 270.2267761230469 152.1750183105469 268.4371948242188 160.6730651855469 C 266.6932983398438 168.9541320800781 264.0909118652344 177.0997161865234 260.7023620605469 184.8835296630859 C 257.3736877441406 192.5297546386719 253.2528839111328 199.9052124023438 248.4544219970703 206.8050994873047 C 243.69873046875 213.6434783935547 238.2361602783203 220.0746002197266 232.2184600830078 225.9197540283203 C 226.1982727050781 231.767333984375 219.5730743408203 237.0764465332031 212.5269165039063 241.6996459960938 C 205.4118041992188 246.3681030273438 197.8048095703125 250.3778381347656 189.9171905517578 253.6175231933594 C 181.8825836181641 256.9175720214844 173.4734191894531 259.4521789550781 164.9233856201172 261.1509399414063 C 156.1464996337891 262.8947448730469 147.1107330322266 263.7789611816406 138.0670776367188 263.7789611816406 Z M 111.3444213867188 164.279296875 C 86.59658050537109 164.279296875 63.90319442749023 177.6670227050781 52.12023162841797 199.218017578125 L 50.44915390014648 202.2744140625 L 52.7371940612793 204.9009399414063 C 74.10434722900391 229.4289093017578 105.2058868408203 243.4964141845703 138.0670776367188 243.4964141845703 C 170.9282684326172 243.4964141845703 202.0298156738281 229.4289093017578 223.3969573974609 204.9009399414063 L 225.6849975585938 202.2744140625 L 224.0139312744141 199.218017578125 C 212.23095703125 177.6670227050781 189.5375366210938 164.279296875 164.7896881103516 164.279296875 C 163.0218048095703 164.279296875 161.2150421142578 164.5484466552734 159.4194946289063 165.0792541503906 L 159.3743133544922 165.0926055908203 L 159.329345703125 165.1068267822266 C 155.79296875 166.2251739501953 152.2848815917969 167.0851440429688 148.9026184082031 167.6627502441406 C 145.2404174804688 168.2882080078125 141.5948028564453 168.6053314208984 138.0670776367188 168.6053314208984 C 131.2615051269531 168.6053314208984 124.3030776977539 167.4598693847656 116.7942352294922 165.1034851074219 L 116.7545394897461 165.0910186767578 L 116.7146148681641 165.0792083740234 C 114.9190368652344 164.5484466552734 113.1122665405273 164.279296875 111.3444213867188 164.279296875 Z M 138.0670776367188 47.47536849975586 C 108.2960357666016 47.47536849975586 84.07553863525391 71.065673828125 84.07553863525391 100.062141418457 C 84.07553863525391 129.05859375 108.2960357666016 152.6489105224609 138.0670776367188 152.6489105224609 C 167.8381195068359 152.6489105224609 192.0586090087891 129.05859375 192.0586090087891 100.062141418457 C 192.0586090087891 71.065673828125 167.8381195068359 47.47536849975586 138.0670776367188 47.47536849975586 Z" stroke="none"/>
            <path d="M 138.0670776367188 10.5625 C 67.45062255859375 10.5625 10 66.23721313476563 10 134.6707153320313 C 10 203.1042175292969 67.45062255859375 258.7789306640625 138.0670776367188 258.7789306640625 C 208.6835327148438 258.7789306640625 266.1341552734375 203.1042175292969 266.1341552734375 134.6707153320313 C 266.1341552734375 66.23721313476563 208.6835327148438 10.5625 138.0670776367188 10.5625 M 138.0670776367188 157.6489410400391 C 105.5390319824219 157.6489410400391 79.07553100585938 131.8156280517578 79.07553100585938 100.0621185302734 C 79.07553100585938 68.30867004394531 105.5390319824219 42.47535705566406 138.0670776367188 42.47535705566406 C 170.5951232910156 42.47535705566406 197.0586242675781 68.30867004394531 197.0586242675781 100.0621185302734 C 197.0586242675781 131.8156280517578 170.5951232910156 157.6489410400391 138.0670776367188 157.6489410400391 M 138.0670776367188 163.6053466796875 C 144.4110717773438 163.6053466796875 150.8728485107422 162.5370788574219 158.0023498535156 160.2842712402344 C 160.25830078125 159.6174011230469 162.5419006347656 159.279296875 164.7897033691406 159.279296875 C 191.3663024902344 159.279296875 215.74072265625 173.6638031005859 228.4010314941406 196.8193969726563 L 231.7431640625 202.93212890625 L 227.1670227050781 208.1851654052734 C 204.8500366210938 233.8035278320313 172.3743591308594 248.4963989257813 138.0670776367188 248.4963989257813 C 103.759765625 248.4963989257813 71.28407287597656 233.8035278320313 48.96711730957031 208.1851654052734 L 44.3909912109375 202.93212890625 L 47.73312377929688 196.8193969726563 C 60.39340209960938 173.6638031005859 84.76785278320313 159.279296875 111.3444366455078 159.279296875 C 113.5922546386719 159.279296875 115.8758544921875 159.6174011230469 118.2913970947266 160.3328552246094 C 125.3083038330078 162.5348968505859 131.7769927978516 163.6053466796875 138.0670776367188 163.6053466796875 M 138.0670776367188 0.5625 C 214.3380279541016 0.5625 276.1341552734375 60.58676147460938 276.1341552734375 134.6707153320313 C 276.1341552734375 208.7546691894531 214.3380279541016 268.7789306640625 138.0670776367188 268.7789306640625 C 61.79612731933594 268.7789306640625 0 208.7546691894531 0 134.6707153320313 C 0 60.58676147460938 61.79612731933594 0.5625 138.0670776367188 0.5625 Z M 138.0670776367188 147.6489410400391 C 165.1237487792969 147.6489410400391 187.0586242675781 126.3430328369141 187.0586242675781 100.0621185302734 C 187.0586242675781 73.78126525878906 165.1237487792969 52.47535705566406 138.0670776367188 52.47535705566406 C 111.0103912353516 52.47535705566406 89.07553100585938 73.78126525878906 89.07553100585938 100.0621185302734 C 89.07553100585938 126.3430328369141 111.0103912353516 147.6489410400391 138.0670776367188 147.6489410400391 Z M 138.0670776367188 173.6053466796875 C 130.1059417724609 173.6053466796875 122.5345306396484 172.1453094482422 115.2971649169922 169.8740844726563 C 114.0166625976563 169.4955749511719 112.6805267333984 169.279296875 111.3444366455078 169.279296875 C 87.46102905273438 169.279296875 66.97366333007813 182.4737548828125 56.50730895996094 201.6166687011719 C 76.10389709472656 224.1122131347656 105.3874816894531 238.4963989257813 138.0670776367188 238.4963989257813 C 170.7466735839844 238.4963989257813 200.0302124023438 224.1122131347656 219.6268463134766 201.6166687011719 C 209.1604919433594 182.4738159179688 188.6731262207031 169.279296875 164.7897033691406 169.279296875 C 163.45361328125 169.279296875 162.1174926757813 169.4955749511719 160.8369903564453 169.8740844726563 C 153.6552581787109 172.1453094482422 146.0282135009766 173.6053466796875 138.0670776367188 173.6053466796875 Z" stroke="none" fill="#4d0e0f"/>
          </g>
        </g>
      </g>
    </g>
    <g id="Info">
      <g id="Partner-6" data-name="Partner" transform="translate(-99.908 566)">
        <rect id="Rectangle_124-7" data-name="Rectangle 124" width="107" height="50" rx="10" transform="translate(140.908 186)" fill="url(#linear-gradient)"/>
        <text id="Alder" transform="translate(150.908 195)" fill="#f6f6f6" font-size="20" font-family="Arial-BoldMT, Arial" font-weight="700"><tspan x="18.938" y="18">Alder</tspan></text>
      </g>
      <g id="Partner-7" data-name="Partner" transform="translate(-100 622)">
        <g id="Rectangle_124-8" data-name="Rectangle 124" transform="translate(141 186)" fill="#fff" stroke="#4d0e0f" stroke-width="3">
          <rect width="107" height="46" rx="10" stroke="none"/>
          <rect x="1.5" y="1.5" width="104" height="43" rx="8.5" fill="none"/>
        </g>
        <text id="_70_" data-name="70+" transform="translate(151 195)" fill="#4d0e0f" font-size="20" font-family="Arial-BoldMT, Arial" font-weight="700"><tspan x="27.537" y="18">70+</tspan></text>
      </g>
      <g id="Partner-8" data-name="Partner" transform="translate(20 622)">
        <g id="Rectangle_124-9" data-name="Rectangle 124" transform="translate(141 186)" fill="#fff" stroke="#4d0e0f" stroke-width="3">
          <rect width="107" height="46" rx="10" stroke="none"/>
          <rect x="1.5" y="1.5" width="104" height="43" rx="8.5" fill="none"/>
        </g>
        <text id="Kvinde" transform="translate(151 195)" fill="#4d0e0f" font-size="20" font-family="Arial-BoldMT, Arial" font-weight="700"><tspan x="11.16" y="18">Kvinde</tspan></text>
      </g>
      <g id="Partner-9" data-name="Partner" transform="translate(20.092 566)">
        <rect id="Rectangle_124-10" data-name="Rectangle 124" width="107" height="50" rx="10" transform="translate(140.908 186)" fill="url(#linear-gradient)"/>
        <text id="Køn" transform="translate(150.908 195)" fill="#f6f6f6" font-size="20" font-family="Arial-BoldMT, Arial" font-weight="700"><tspan x="25.062" y="18">Køn</tspan></text>
      </g>
      <g id="Partner-10" data-name="Partner" transform="translate(140.092 566)">
        <rect id="Rectangle_124-11" data-name="Rectangle 124" width="107" height="50" rx="10" transform="translate(140.908 186)" fill="url(#linear-gradient)"/>
        <text id="By" transform="translate(150.908 195)" fill="#f6f6f6" font-size="20" font-family="Arial-BoldMT, Arial" font-weight="700"><tspan x="31.717" y="18">By</tspan></text>
      </g>
      <g id="Partner-11" data-name="Partner" transform="translate(140 622)">
        <g id="Rectangle_124-12" data-name="Rectangle 124" transform="translate(141 186)" fill="#fff" stroke="#4d0e0f" stroke-width="3">
          <rect width="107" height="46" rx="10" stroke="none"/>
          <rect x="1.5" y="1.5" width="104" height="43" rx="8.5" fill="none"/>
        </g>
        <text id="Odense" transform="translate(151 195)" fill="#4d0e0f" font-size="20" font-family="Arial-BoldMT, Arial" font-weight="700"><tspan x="7.82" y="18">Odense</tspan></text>
      </g>
    </g>
  </g>
</svg>
